<?xml version="1.0" encoding="UTF-8" standalone="no"?>
<!DOCTYPE svg PUBLIC "-//W3C//DTD SVG 1.1//EN"
 "http://www.w3.org/Graphics/SVG/1.1/DTD/svg11.dtd">
<!-- Generated by graphviz version 2.42.3 (0)
 -->
<!-- Title: DockerDeps Pages: 1 -->
<svg width="782pt" height="590pt"
 viewBox="0.00 0.00 782.00 590.00" xmlns="http://www.w3.org/2000/svg" xmlns:xlink="http://www.w3.org/1999/xlink">
<g id="graph0" class="graph" transform="scale(1 1) rotate(0) translate(4 586)">
<title>DockerDeps</title>
<polygon fill="white" stroke="transparent" points="-4,4 -4,-586 778,-586 778,4 -4,4"/>
<g id="clust1" class="cluster">
<title>clusterDockerfile</title>
<polygon fill="none" stroke="royalblue" points="332,-116 332,-503 578,-503 578,-116 332,-116"/>
<text text-anchor="middle" x="455" y="-487.8" font-family="Times,serif" font-size="14.00">docker/&lt;distro&gt;/Dockerfile</text>
</g>
<g id="clust2" class="cluster">
<title>clusterCache</title>
<polygon fill="none" stroke="royalblue" points="8,-8 8,-83 608,-83 608,-8 8,-8"/>
<text text-anchor="middle" x="308" y="-67.8" font-family="Times,serif" font-size="14.00">cache/&lt;distro&gt;/</text>
</g>
<!-- DISTRO_IMG -->
<g id="node1" class="node">
<title>DISTRO_IMG</title>
<path fill="royalblue" stroke="black" d="M438,-577.73C438,-579.53 409.31,-581 374,-581 338.69,-581 310,-579.53 310,-577.73 310,-577.73 310,-548.27 310,-548.27 310,-546.47 338.69,-545 374,-545 409.31,-545 438,-546.47 438,-548.27 438,-548.27 438,-577.73 438,-577.73"/>
<path fill="none" stroke="black" d="M438,-577.73C438,-575.92 409.31,-574.45 374,-574.45 338.69,-574.45 310,-575.92 310,-577.73"/>
<text text-anchor="middle" x="374" y="-559.3" font-family="Times,serif" font-size="14.00">&lt;distro&gt;:latest</text>
</g>
<!-- ENV_IMG -->
<g id="node4" class="node">
<title>ENV_IMG</title>
<path fill="royalblue" stroke="black" d="M537.5,-467.35C537.5,-469.99 493.35,-472.13 439,-472.13 384.65,-472.13 340.5,-469.99 340.5,-467.35 340.5,-467.35 340.5,-424.4 340.5,-424.4 340.5,-421.76 384.65,-419.62 439,-419.62 493.35,-419.62 537.5,-421.76 537.5,-424.4 537.5,-424.4 537.5,-467.35 537.5,-467.35"/>
<path fill="none" stroke="black" d="M537.5,-467.35C537.5,-464.72 493.35,-462.58 439,-462.58 384.65,-462.58 340.5,-464.72 340.5,-467.35"/>
<text text-anchor="middle" x="439" y="-449.68" font-family="Times,serif" font-size="14.00">CMakeCpp:&lt;distro&gt;_env</text>
<text text-anchor="middle" x="439" y="-434.68" font-family="Times,serif" font-size="14.00">env</text>
</g>
<!-- DISTRO_IMG&#45;&gt;ENV_IMG -->
<g id="edge5" class="edge">
<title>DISTRO_IMG&#45;&gt;ENV_IMG</title>
<path fill="none" stroke="black" d="M383.87,-544.51C393.34,-527.75 407.89,-501.98 419.67,-481.12"/>
<polygon fill="black" stroke="black" points="422.82,-482.66 424.69,-472.23 416.72,-479.21 422.82,-482.66"/>
</g>
<!-- PKG -->
<g id="node2" class="node">
<title>PKG</title>
<polygon fill="royalblue" stroke="black" points="549.5,-582 460.5,-582 456.5,-578 456.5,-544 545.5,-544 549.5,-548 549.5,-582"/>
<polyline fill="none" stroke="black" points="545.5,-578 456.5,-578 "/>
<polyline fill="none" stroke="black" points="545.5,-578 545.5,-544 "/>
<polyline fill="none" stroke="black" points="545.5,-578 549.5,-582 "/>
<text text-anchor="middle" x="503" y="-566.8" font-family="Times,serif" font-size="14.00">packages</text>
<text text-anchor="middle" x="503" y="-551.8" font-family="Times,serif" font-size="14.00">e.g. cmake</text>
</g>
<!-- PKG&#45;&gt;ENV_IMG -->
<g id="edge6" class="edge">
<title>PKG&#45;&gt;ENV_IMG</title>
<path fill="none" stroke="black" stroke-dasharray="5,2" d="M492.86,-543.76C483.53,-526.97 469.44,-501.63 458.01,-481.08"/>
<polygon fill="black" stroke="black" points="461.06,-479.35 453.14,-472.31 454.94,-482.75 461.06,-479.35"/>
<text text-anchor="middle" x="504.5" y="-514.8" font-family="Times,serif" font-size="14.00">install</text>
</g>
<!-- SRC -->
<g id="node3" class="node">
<title>SRC</title>
<polygon fill="royalblue" stroke="black" points="659.5,-463.88 656.5,-467.88 635.5,-467.88 632.5,-463.88 586.5,-463.88 586.5,-427.88 659.5,-427.88 659.5,-463.88"/>
<text text-anchor="middle" x="623" y="-442.18" font-family="Times,serif" font-size="14.00">git repo</text>
</g>
<!-- DEVEL_IMG -->
<g id="node5" class="node">
<title>DEVEL_IMG</title>
<path fill="royalblue" stroke="black" d="M570,-364.1C570,-366.74 522.94,-368.88 465,-368.88 407.06,-368.88 360,-366.74 360,-364.1 360,-364.1 360,-321.15 360,-321.15 360,-318.51 407.06,-316.37 465,-316.37 522.94,-316.37 570,-318.51 570,-321.15 570,-321.15 570,-364.1 570,-364.1"/>
<path fill="none" stroke="black" d="M570,-364.1C570,-361.47 522.94,-359.33 465,-359.33 407.06,-359.33 360,-361.47 360,-364.1"/>
<text text-anchor="middle" x="465" y="-346.43" font-family="Times,serif" font-size="14.00">CMakeCpp:&lt;distro&gt;_devel</text>
<text text-anchor="middle" x="465" y="-331.43" font-family="Times,serif" font-size="14.00">devel</text>
</g>
<!-- SRC&#45;&gt;DEVEL_IMG -->
<g id="edge7" class="edge">
<title>SRC&#45;&gt;DEVEL_IMG</title>
<path fill="none" stroke="black" stroke-dasharray="5,2" d="M596.2,-427.7C573.48,-413.14 540.33,-391.9 513.04,-374.41"/>
<polygon fill="black" stroke="black" points="514.71,-371.32 504.4,-368.87 510.93,-377.22 514.71,-371.32"/>
<text text-anchor="middle" x="570" y="-390.55" font-family="Times,serif" font-size="14.00">copy</text>
</g>
<!-- ENV_IMG&#45;&gt;DEVEL_IMG -->
<g id="edge1" class="edge">
<title>ENV_IMG&#45;&gt;DEVEL_IMG</title>
<path fill="none" stroke="black" d="M445.49,-419.59C448.66,-407.26 452.52,-392.24 455.96,-378.82"/>
<polygon fill="black" stroke="black" points="459.4,-379.5 458.5,-368.94 452.62,-377.76 459.4,-379.5"/>
</g>
<!-- INSTALL_IMG -->
<g id="node7" class="node">
<title>INSTALL_IMG</title>
<path fill="royalblue" stroke="black" d="M556,-171.6C556,-174.24 507.59,-176.38 448,-176.38 388.41,-176.38 340,-174.24 340,-171.6 340,-171.6 340,-128.65 340,-128.65 340,-126.01 388.41,-123.87 448,-123.87 507.59,-123.87 556,-126.01 556,-128.65 556,-128.65 556,-171.6 556,-171.6"/>
<path fill="none" stroke="black" d="M556,-171.6C556,-168.97 507.59,-166.83 448,-166.83 388.41,-166.83 340,-168.97 340,-171.6"/>
<text text-anchor="middle" x="448" y="-153.93" font-family="Times,serif" font-size="14.00">CMakeCpp:&lt;distro&gt;_install</text>
<text text-anchor="middle" x="448" y="-138.93" font-family="Times,serif" font-size="14.00">install</text>
</g>
<!-- ENV_IMG&#45;&gt;INSTALL_IMG -->
<g id="edge4" class="edge">
<title>ENV_IMG&#45;&gt;INSTALL_IMG</title>
<path fill="none" stroke="black" d="M396.19,-419.59C378.75,-406.78 360.49,-389.51 351,-368.75 343.18,-351.65 340.24,-242.59 352,-227.25 369.97,-203.8 392.86,-227.62 416,-209.25 423.84,-203.03 430.04,-194.34 434.81,-185.58"/>
<polygon fill="black" stroke="black" points="438,-187.03 439.28,-176.51 431.72,-183.94 438,-187.03"/>
</g>
<!-- ENV_TAR -->
<g id="node8" class="node">
<title>ENV_TAR</title>
<polygon fill="royalblue" stroke="black" points="130,-52 16,-52 16,-16 136,-16 136,-46 130,-52"/>
<polyline fill="none" stroke="black" points="130,-52 130,-46 "/>
<polyline fill="none" stroke="black" points="136,-46 130,-46 "/>
<text text-anchor="middle" x="76" y="-30.3" font-family="Times,serif" font-size="14.00">docker_env.tar</text>
</g>
<!-- ENV_IMG&#45;&gt;ENV_TAR -->
<g id="edge8" class="edge">
<title>ENV_IMG&#45;&gt;ENV_TAR</title>
<path fill="none" stroke="red" d="M340.46,-441.01C214.64,-433.32 13,-410.57 13,-343.62 13,-343.62 13,-343.62 13,-149.12 13,-115.21 34.59,-81.89 52.49,-60.1"/>
<polygon fill="red" stroke="red" points="55.29,-62.21 59.12,-52.33 49.96,-57.67 55.29,-62.21"/>
<text text-anchor="middle" x="103.5" y="-249.68" font-family="Times,serif" font-size="14.00">make save_env_&lt;distro&gt;</text>
</g>
<!-- BUILD_IMG -->
<g id="node6" class="node">
<title>BUILD_IMG</title>
<path fill="royalblue" stroke="black" d="M569,-274.85C569,-277.49 522.39,-279.63 465,-279.63 407.61,-279.63 361,-277.49 361,-274.85 361,-274.85 361,-231.9 361,-231.9 361,-229.26 407.61,-227.12 465,-227.12 522.39,-227.12 569,-229.26 569,-231.9 569,-231.9 569,-274.85 569,-274.85"/>
<path fill="none" stroke="black" d="M569,-274.85C569,-272.22 522.39,-270.08 465,-270.08 407.61,-270.08 361,-272.22 361,-274.85"/>
<text text-anchor="middle" x="465" y="-257.18" font-family="Times,serif" font-size="14.00">CMakeCpp:&lt;distro&gt;_build</text>
<text text-anchor="middle" x="465" y="-242.18" font-family="Times,serif" font-size="14.00">build</text>
</g>
<!-- DEVEL_IMG&#45;&gt;BUILD_IMG -->
<g id="edge2" class="edge">
<title>DEVEL_IMG&#45;&gt;BUILD_IMG</title>
<path fill="none" stroke="black" d="M465,-316.39C465,-308.07 465,-298.66 465,-289.72"/>
<polygon fill="black" stroke="black" points="468.5,-289.55 465,-279.55 461.5,-289.55 468.5,-289.55"/>
</g>
<!-- DEVEL_TAR -->
<g id="node9" class="node">
<title>DEVEL_TAR</title>
<polygon fill="royalblue" stroke="black" points="283.5,-52 154.5,-52 154.5,-16 289.5,-16 289.5,-46 283.5,-52"/>
<polyline fill="none" stroke="black" points="283.5,-52 283.5,-46 "/>
<polyline fill="none" stroke="black" points="289.5,-46 283.5,-46 "/>
<text text-anchor="middle" x="222" y="-30.3" font-family="Times,serif" font-size="14.00">docker_devel.tar</text>
</g>
<!-- DEVEL_IMG&#45;&gt;DEVEL_TAR -->
<g id="edge9" class="edge">
<title>DEVEL_IMG&#45;&gt;DEVEL_TAR</title>
<path fill="none" stroke="red" d="M372.73,-317.88C317.68,-298.44 252.21,-264.83 219,-209.25 191.67,-163.51 203.36,-98.23 213.32,-61.95"/>
<polygon fill="red" stroke="red" points="216.75,-62.68 216.18,-52.1 210.03,-60.73 216.75,-62.68"/>
<text text-anchor="middle" x="315.5" y="-198.05" font-family="Times,serif" font-size="14.00">make save_devel_&lt;distro&gt;</text>
</g>
<!-- BUILD_IMG&#45;&gt;INSTALL_IMG -->
<g id="edge3" class="edge">
<title>BUILD_IMG&#45;&gt;INSTALL_IMG</title>
<path fill="none" stroke="black" stroke-dasharray="5,2" d="M460.75,-227.09C458.69,-214.76 456.16,-199.74 453.91,-186.32"/>
<polygon fill="black" stroke="black" points="457.36,-185.72 452.25,-176.44 450.45,-186.88 457.36,-185.72"/>
<text text-anchor="middle" x="498" y="-198.05" font-family="Times,serif" font-size="14.00">copy install</text>
</g>
<!-- BUILD_TAR -->
<g id="node10" class="node">
<title>BUILD_TAR</title>
<polygon fill="royalblue" stroke="black" points="593.5,-52 466.5,-52 466.5,-16 599.5,-16 599.5,-46 593.5,-52"/>
<polyline fill="none" stroke="black" points="593.5,-52 593.5,-46 "/>
<polyline fill="none" stroke="black" points="599.5,-46 593.5,-46 "/>
<text text-anchor="middle" x="533" y="-30.3" font-family="Times,serif" font-size="14.00">docker_build.tar</text>
</g>
<!-- BUILD_IMG&#45;&gt;BUILD_TAR -->
<g id="edge10" class="edge">
<title>BUILD_IMG&#45;&gt;BUILD_TAR</title>
<path fill="none" stroke="red" d="M518.92,-227.06C527.46,-221.82 535.83,-215.85 543,-209.25 555.97,-197.31 558.37,-192.58 565,-176.25 579.41,-140.74 590.73,-127.15 578,-91 573.96,-79.53 566.48,-68.68 558.76,-59.64"/>
<polygon fill="red" stroke="red" points="561.3,-57.24 551.99,-52.19 556.12,-61.94 561.3,-57.24"/>
<text text-anchor="middle" x="678.5" y="-146.43" font-family="Times,serif" font-size="14.00">make save_build_&lt;distro&gt;</text>
</g>
<!-- INSTALL_TAR -->
<g id="node11" class="node">
<title>INSTALL_TAR</title>
<polygon fill="royalblue" stroke="black" points="442.5,-52 307.5,-52 307.5,-16 448.5,-16 448.5,-46 442.5,-52"/>
<polyline fill="none" stroke="black" points="442.5,-52 442.5,-46 "/>
<polyline fill="none" stroke="black" points="448.5,-46 442.5,-46 "/>
<text text-anchor="middle" x="378" y="-30.3" font-family="Times,serif" font-size="14.00">docker_install.tar</text>
</g>
<!-- INSTALL_IMG&#45;&gt;INSTALL_TAR -->
<g id="edge11" class="edge">
<title>INSTALL_IMG&#45;&gt;INSTALL_TAR</title>
<path fill="none" stroke="red" d="M394.57,-123.91C388.37,-118.83 382.88,-112.89 379,-106 371.62,-92.91 371.04,-76.18 372.46,-62.25"/>
<polygon fill="red" stroke="red" points="375.94,-62.64 373.86,-52.25 369.01,-61.67 375.94,-62.64"/>
<text text-anchor="middle" x="478.5" y="-94.8" font-family="Times,serif" font-size="14.00">make save_install_&lt;distro&gt;</text>
</g>
</g>
</svg>
