<?xml version="1.0" encoding="UTF-8" standalone="no"?>
<!DOCTYPE svg PUBLIC "-//W3C//DTD SVG 1.1//EN"
 "http://www.w3.org/Graphics/SVG/1.1/DTD/svg11.dtd">
<!-- Generated by graphviz version 2.42.3 (0)
 -->
<!-- Title: DockerDeps Pages: 1 -->
<svg width="782pt" height="590pt"
 viewBox="0.00 0.00 782.00 590.00" xmlns="http://www.w3.org/2000/svg" xmlns:xlink="http://www.w3.org/1999/xlink">
<g id="graph0" class="graph" transform="scale(1 1) rotate(0) translate(4 586)">
<title>DockerDeps</title>
<polygon fill="white" stroke="transparent" points="-4,4 -4,-586 778,-586 778,4 -4,4"/>
<g id="clust1" class="cluster">
<title>clusterDockerfile</title>
<polygon fill="none" stroke="royalblue" points="334,-116 334,-503 578,-503 578,-116 334,-116"/>
<text text-anchor="middle" x="456" y="-487.8" font-family="Times,serif" font-size="14.00">docker/&lt;distro&gt;/Dockerfile</text>
</g>
<g id="clust2" class="cluster">
<title>clusterCache</title>
<polygon fill="none" stroke="royalblue" points="8,-8 8,-83 608,-83 608,-8 8,-8"/>
<text text-anchor="middle" x="308" y="-67.8" font-family="Times,serif" font-size="14.00">cache/&lt;distro&gt;/</text>
</g>
<!-- DISTRO_IMG -->
<g id="node1" class="node">
<title>DISTRO_IMG</title>
<path fill="royalblue" stroke="black" d="M438,-577.73C438,-579.53 409.31,-581 374,-581 338.69,-581 310,-579.53 310,-577.73 310,-577.73 310,-548.27 310,-548.27 310,-546.47 338.69,-545 374,-545 409.31,-545 438,-546.47 438,-548.27 438,-548.27 438,-577.73 438,-577.73"/>
<path fill="none" stroke="black" d="M438,-577.73C438,-575.92 409.31,-574.45 374,-574.45 338.69,-574.45 310,-575.92 310,-577.73"/>
<text text-anchor="middle" x="374" y="-559.3" font-family="Times,serif" font-size="14.00">&lt;distro&gt;:latest</text>
</g>
<!-- ENV_IMG -->
<g id="node4" class="node">
<title>ENV_IMG</title>
<path fill="royalblue" stroke="black" d="M536.5,-467.35C536.5,-469.99 492.8,-472.13 439,-472.13 385.2,-472.13 341.5,-469.99 341.5,-467.35 341.5,-467.35 341.5,-424.4 341.5,-424.4 341.5,-421.76 385.2,-419.62 439,-419.62 492.8,-419.62 536.5,-421.76 536.5,-424.4 536.5,-424.4 536.5,-467.35 536.5,-467.35"/>
<path fill="none" stroke="black" d="M536.5,-467.35C536.5,-464.72 492.8,-462.58 439,-462.58 385.2,-462.58 341.5,-464.72 341.5,-467.35"/>
<text text-anchor="middle" x="439" y="-449.68" font-family="Times,serif" font-size="14.00">cmake&#45;cpp:&lt;distro&gt;_env</text>
<text text-anchor="middle" x="439" y="-434.68" font-family="Times,serif" font-size="14.00">env</text>
</g>
<!-- DISTRO_IMG&#45;&gt;ENV_IMG -->
<g id="edge5" class="edge">
<title>DISTRO_IMG&#45;&gt;ENV_IMG</title>
<path fill="none" stroke="black" d="M383.87,-544.51C393.34,-527.75 407.89,-501.98 419.67,-481.12"/>
<polygon fill="black" stroke="black" points="422.82,-482.66 424.69,-472.23 416.72,-479.21 422.82,-482.66"/>
</g>
<!-- PKG -->
<g id="node2" class="node">
<title>PKG</title>
<polygon fill="royalblue" stroke="black" points="549.5,-582 460.5,-582 456.5,-578 456.5,-544 545.5,-544 549.5,-548 549.5,-582"/>
<polyline fill="none" stroke="black" points="545.5,-578 456.5,-578 "/>
<polyline fill="none" stroke="black" points="545.5,-578 545.5,-544 "/>
<polyline fill="none" stroke="black" points="545.5,-578 549.5,-582 "/>
<text text-anchor="middle" x="503" y="-566.8" font-family="Times,serif" font-size="14.00">packages</text>
<text text-anchor="middle" x="503" y="-551.8" font-family="Times,serif" font-size="14.00">e.g. cmake</text>
</g>
<!-- PKG&#45;&gt;ENV_IMG -->
<g id="edge6" class="edge">
<title>PKG&#45;&gt;ENV_IMG</title>
<path fill="none" stroke="black" stroke-dasharray="5,2" d="M492.86,-543.76C483.53,-526.97 469.44,-501.63 458.01,-481.08"/>
<polygon fill="black" stroke="black" points="461.06,-479.35 453.14,-472.31 454.94,-482.75 461.06,-479.35"/>
<text text-anchor="middle" x="504.5" y="-514.8" font-family="Times,serif" font-size="14.00">install</text>
</g>
<!-- SRC -->
<g id="node3" class="node">
<title>SRC</title>
<polygon fill="royalblue" stroke="black" points="659.5,-463.88 656.5,-467.88 635.5,-467.88 632.5,-463.88 586.5,-463.88 586.5,-427.88 659.5,-427.88 659.5,-463.88"/>
<text text-anchor="middle" x="623" y="-442.18" font-family="Times,serif" font-size="14.00">git repo</text>
</g>
<!-- DEVEL_IMG -->
<g id="node5" class="node">
<title>DEVEL_IMG</title>
<path fill="royalblue" stroke="black" d="M570,-364.1C570,-366.74 523.39,-368.88 466,-368.88 408.61,-368.88 362,-366.74 362,-364.1 362,-364.1 362,-321.15 362,-321.15 362,-318.51 408.61,-316.37 466,-316.37 523.39,-316.37 570,-318.51 570,-321.15 570,-321.15 570,-364.1 570,-364.1"/>
<path fill="none" stroke="black" d="M570,-364.1C570,-361.47 523.39,-359.33 466,-359.33 408.61,-359.33 362,-361.47 362,-364.1"/>
<text text-anchor="middle" x="466" y="-346.43" font-family="Times,serif" font-size="14.00">cmake&#45;cpp:&lt;distro&gt;_devel</text>
<text text-anchor="middle" x="466" y="-331.43" font-family="Times,serif" font-size="14.00">devel</text>
</g>
<!-- SRC&#45;&gt;DEVEL_IMG -->
<g id="edge7" class="edge">
<title>SRC&#45;&gt;DEVEL_IMG</title>
<path fill="none" stroke="black" stroke-dasharray="5,2" d="M596.37,-427.7C573.79,-413.14 540.85,-391.9 513.73,-374.41"/>
<polygon fill="black" stroke="black" points="515.45,-371.35 505.15,-368.87 511.66,-377.24 515.45,-371.35"/>
<text text-anchor="middle" x="570" y="-390.55" font-family="Times,serif" font-size="14.00">copy</text>
</g>
<!-- ENV_IMG&#45;&gt;DEVEL_IMG -->
<g id="edge1" class="edge">
<title>ENV_IMG&#45;&gt;DEVEL_IMG</title>
<path fill="none" stroke="black" d="M445.74,-419.59C449.03,-407.26 453.04,-392.24 456.61,-378.82"/>
<polygon fill="black" stroke="black" points="460.05,-379.51 459.25,-368.94 453.29,-377.7 460.05,-379.51"/>
</g>
<!-- INSTALL_IMG -->
<g id="node7" class="node">
<title>INSTALL_IMG</title>
<path fill="royalblue" stroke="black" d="M556,-171.6C556,-174.24 508.04,-176.38 449,-176.38 389.96,-176.38 342,-174.24 342,-171.6 342,-171.6 342,-128.65 342,-128.65 342,-126.01 389.96,-123.87 449,-123.87 508.04,-123.87 556,-126.01 556,-128.65 556,-128.65 556,-171.6 556,-171.6"/>
<path fill="none" stroke="black" d="M556,-171.6C556,-168.97 508.04,-166.83 449,-166.83 389.96,-166.83 342,-168.97 342,-171.6"/>
<text text-anchor="middle" x="449" y="-153.93" font-family="Times,serif" font-size="14.00">cmake&#45;cpp:&lt;distro&gt;_install</text>
<text text-anchor="middle" x="449" y="-138.93" font-family="Times,serif" font-size="14.00">install</text>
</g>
<!-- ENV_IMG&#45;&gt;INSTALL_IMG -->
<g id="edge4" class="edge">
<title>ENV_IMG&#45;&gt;INSTALL_IMG</title>
<path fill="none" stroke="black" d="M397.59,-419.72C380.41,-406.84 362.33,-389.48 353,-368.75 345.28,-351.6 342.4,-242.51 354,-227.25 371.36,-204.4 393.48,-227.03 416,-209.25 423.91,-203 430.25,-194.31 435.17,-185.54"/>
<polygon fill="black" stroke="black" points="438.37,-186.98 439.8,-176.48 432.14,-183.8 438.37,-186.98"/>
</g>
<!-- ENV_TAR -->
<g id="node8" class="node">
<title>ENV_TAR</title>
<polygon fill="royalblue" stroke="black" points="130,-52 16,-52 16,-16 136,-16 136,-46 130,-52"/>
<polyline fill="none" stroke="black" points="130,-52 130,-46 "/>
<polyline fill="none" stroke="black" points="136,-46 130,-46 "/>
<text text-anchor="middle" x="76" y="-30.3" font-family="Times,serif" font-size="14.00">docker_env.tar</text>
</g>
<!-- ENV_IMG&#45;&gt;ENV_TAR -->
<g id="edge8" class="edge">
<title>ENV_IMG&#45;&gt;ENV_TAR</title>
<path fill="none" stroke="red" d="M341.27,-441.06C215.5,-433.42 13,-410.71 13,-343.62 13,-343.62 13,-343.62 13,-149.12 13,-115.21 34.59,-81.89 52.49,-60.1"/>
<polygon fill="red" stroke="red" points="55.29,-62.21 59.12,-52.33 49.96,-57.67 55.29,-62.21"/>
<text text-anchor="middle" x="103.5" y="-249.68" font-family="Times,serif" font-size="14.00">make save_env_&lt;distro&gt;</text>
</g>
<!-- BUILD_IMG -->
<g id="node6" class="node">
<title>BUILD_IMG</title>
<path fill="royalblue" stroke="black" d="M569,-274.85C569,-277.49 522.83,-279.63 466,-279.63 409.17,-279.63 363,-277.49 363,-274.85 363,-274.85 363,-231.9 363,-231.9 363,-229.26 409.17,-227.12 466,-227.12 522.83,-227.12 569,-229.26 569,-231.9 569,-231.9 569,-274.85 569,-274.85"/>
<path fill="none" stroke="black" d="M569,-274.85C569,-272.22 522.83,-270.08 466,-270.08 409.17,-270.08 363,-272.22 363,-274.85"/>
<text text-anchor="middle" x="466" y="-257.18" font-family="Times,serif" font-size="14.00">cmake&#45;cpp:&lt;distro&gt;_build</text>
<text text-anchor="middle" x="466" y="-242.18" font-family="Times,serif" font-size="14.00">build</text>
</g>
<!-- DEVEL_IMG&#45;&gt;BUILD_IMG -->
<g id="edge2" class="edge">
<title>DEVEL_IMG&#45;&gt;BUILD_IMG</title>
<path fill="none" stroke="black" d="M466,-316.39C466,-308.07 466,-298.66 466,-289.72"/>
<polygon fill="black" stroke="black" points="469.5,-289.55 466,-279.55 462.5,-289.55 469.5,-289.55"/>
</g>
<!-- DEVEL_TAR -->
<g id="node9" class="node">
<title>DEVEL_TAR</title>
<polygon fill="royalblue" stroke="black" points="283.5,-52 154.5,-52 154.5,-16 289.5,-16 289.5,-46 283.5,-52"/>
<polyline fill="none" stroke="black" points="283.5,-52 283.5,-46 "/>
<polyline fill="none" stroke="black" points="289.5,-46 283.5,-46 "/>
<text text-anchor="middle" x="222" y="-30.3" font-family="Times,serif" font-size="14.00">docker_devel.tar</text>
</g>
<!-- DEVEL_IMG&#45;&gt;DEVEL_TAR -->
<g id="edge9" class="edge">
<title>DEVEL_IMG&#45;&gt;DEVEL_TAR</title>
<path fill="none" stroke="red" d="M373.37,-317.98C318.1,-298.58 252.36,-264.98 219,-209.25 191.63,-163.53 203.34,-98.25 213.31,-61.96"/>
<polygon fill="red" stroke="red" points="216.74,-62.68 216.17,-52.1 210.02,-60.73 216.74,-62.68"/>
<text text-anchor="middle" x="315.5" y="-198.05" font-family="Times,serif" font-size="14.00">make save_devel_&lt;distro&gt;</text>
</g>
<!-- BUILD_IMG&#45;&gt;INSTALL_IMG -->
<g id="edge3" class="edge">
<title>BUILD_IMG&#45;&gt;INSTALL_IMG</title>
<path fill="none" stroke="black" stroke-dasharray="5,2" d="M461.75,-227.09C459.69,-214.76 457.16,-199.74 454.91,-186.32"/>
<polygon fill="black" stroke="black" points="458.36,-185.72 453.25,-176.44 451.45,-186.88 458.36,-185.72"/>
<text text-anchor="middle" x="499" y="-198.05" font-family="Times,serif" font-size="14.00">copy install</text>
</g>
<!-- BUILD_TAR -->
<g id="node10" class="node">
<title>BUILD_TAR</title>
<polygon fill="royalblue" stroke="black" points="593.5,-52 466.5,-52 466.5,-16 599.5,-16 599.5,-46 593.5,-52"/>
<polyline fill="none" stroke="black" points="593.5,-52 593.5,-46 "/>
<polyline fill="none" stroke="black" points="599.5,-46 593.5,-46 "/>
<text text-anchor="middle" x="533" y="-30.3" font-family="Times,serif" font-size="14.00">docker_build.tar</text>
</g>
<!-- BUILD_IMG&#45;&gt;BUILD_TAR -->
<g id="edge10" class="edge">
<title>BUILD_IMG&#45;&gt;BUILD_TAR</title>
<path fill="none" stroke="red" d="M520.04,-227.19C528.57,-221.93 536.9,-215.93 544,-209.25 556.67,-197.34 558.63,-192.43 565,-176.25 579.03,-140.58 590.73,-127.15 578,-91 573.96,-79.53 566.48,-68.68 558.76,-59.64"/>
<polygon fill="red" stroke="red" points="561.3,-57.24 551.99,-52.19 556.12,-61.94 561.3,-57.24"/>
<text text-anchor="middle" x="678.5" y="-146.43" font-family="Times,serif" font-size="14.00">make save_build_&lt;distro&gt;</text>
</g>
<!-- INSTALL_TAR -->
<g id="node11" class="node">
<title>INSTALL_TAR</title>
<polygon fill="royalblue" stroke="black" points="442.5,-52 307.5,-52 307.5,-16 448.5,-16 448.5,-46 442.5,-52"/>
<polyline fill="none" stroke="black" points="442.5,-52 442.5,-46 "/>
<polyline fill="none" stroke="black" points="448.5,-46 442.5,-46 "/>
<text text-anchor="middle" x="378" y="-30.3" font-family="Times,serif" font-size="14.00">docker_install.tar</text>
</g>
<!-- INSTALL_IMG&#45;&gt;INSTALL_TAR -->
<g id="edge11" class="edge">
<title>INSTALL_IMG&#45;&gt;INSTALL_TAR</title>
<path fill="none" stroke="red" d="M394.47,-123.74C388.32,-118.71 382.88,-112.83 379,-106 371.58,-92.93 371,-76.2 372.43,-62.27"/>
<polygon fill="red" stroke="red" points="375.91,-62.66 373.83,-52.27 368.98,-61.68 375.91,-62.66"/>
<text text-anchor="middle" x="478.5" y="-94.8" font-family="Times,serif" font-size="14.00">make save_install_&lt;distro&gt;</text>
</g>
</g>
</svg>
