<?xml version="1.0" encoding="UTF-8" standalone="no"?>
<!DOCTYPE svg PUBLIC "-//W3C//DTD SVG 1.1//EN"
 "http://www.w3.org/Graphics/SVG/1.1/DTD/svg11.dtd">
<!-- Generated by graphviz version 2.48.0 (0)
 -->
<!-- Title: DockerDeps Pages: 1 -->
<svg width="1570pt" height="900pt"
 viewBox="0.00 0.00 1570.00 899.75" xmlns="http://www.w3.org/2000/svg" xmlns:xlink="http://www.w3.org/1999/xlink">
<g id="graph0" class="graph" transform="scale(1 1) rotate(0) translate(4 895.75)">
<title>DockerDeps</title>
<polygon fill="white" stroke="transparent" points="-4,4 -4,-895.75 1566,-895.75 1566,4 -4,4"/>
<g id="clust1" class="cluster">
<title>clusterDockerfile</title>
<polygon fill="none" stroke="royalblue" points="427,-116 427,-812.75 991,-812.75 991,-116 427,-116"/>
<text text-anchor="middle" x="709" y="-797.55" font-family="Times,serif" font-size="14.00">docker/&lt;distro&gt;/Dockerfile</text>
</g>
<g id="clust2" class="cluster">
<title>clusterCache</title>
<polygon fill="none" stroke="royalblue" points="8,-8 8,-83 1382,-83 1382,-8 8,-8"/>
<text text-anchor="middle" x="695" y="-67.8" font-family="Times,serif" font-size="14.00">cache/&lt;distro&gt;/</text>
</g>
<!-- DISTRO_IMG -->
<g id="node1" class="node">
<title>DISTRO_IMG</title>
<path fill="royalblue" stroke="black" d="M633,-887.48C633,-889.28 604.31,-890.75 569,-890.75 533.69,-890.75 505,-889.28 505,-887.48 505,-887.48 505,-858.02 505,-858.02 505,-856.22 533.69,-854.75 569,-854.75 604.31,-854.75 633,-856.22 633,-858.02 633,-858.02 633,-887.48 633,-887.48"/>
<path fill="none" stroke="black" d="M633,-887.48C633,-885.67 604.31,-884.2 569,-884.2 533.69,-884.2 505,-885.67 505,-887.48"/>
<text text-anchor="middle" x="569" y="-869.05" font-family="Times,serif" font-size="14.00">&lt;distro&gt;:latest</text>
</g>
<!-- ENV_IMG -->
<g id="node5" class="node">
<title>ENV_IMG</title>
<path fill="royalblue" stroke="black" d="M741.5,-777.1C741.5,-779.74 697.8,-781.88 644,-781.88 590.2,-781.88 546.5,-779.74 546.5,-777.1 546.5,-777.1 546.5,-734.15 546.5,-734.15 546.5,-731.51 590.2,-729.37 644,-729.37 697.8,-729.37 741.5,-731.51 741.5,-734.15 741.5,-734.15 741.5,-777.1 741.5,-777.1"/>
<path fill="none" stroke="black" d="M741.5,-777.1C741.5,-774.47 697.8,-772.33 644,-772.33 590.2,-772.33 546.5,-774.47 546.5,-777.1"/>
<text text-anchor="middle" x="644" y="-759.42" font-family="Times,serif" font-size="14.00">cmake&#45;cpp:&lt;distro&gt;_env</text>
<text text-anchor="middle" x="644" y="-744.42" font-family="Times,serif" font-size="14.00">env</text>
</g>
<!-- DISTRO_IMG&#45;&gt;ENV_IMG -->
<g id="edge10" class="edge">
<title>DISTRO_IMG&#45;&gt;ENV_IMG</title>
<path fill="none" stroke="black" d="M580.39,-854.26C591.36,-837.42 608.25,-811.49 621.87,-790.59"/>
<polygon fill="black" stroke="black" points="624.96,-792.27 627.48,-781.98 619.09,-788.44 624.96,-792.27"/>
</g>
<!-- PKG -->
<g id="node2" class="node">
<title>PKG</title>
<polygon fill="royalblue" stroke="black" points="786.5,-891.75 655.5,-891.75 651.5,-887.75 651.5,-853.75 782.5,-853.75 786.5,-857.75 786.5,-891.75"/>
<polyline fill="none" stroke="black" points="782.5,-887.75 651.5,-887.75 "/>
<polyline fill="none" stroke="black" points="782.5,-887.75 782.5,-853.75 "/>
<polyline fill="none" stroke="black" points="782.5,-887.75 786.5,-891.75 "/>
<text text-anchor="middle" x="719" y="-876.55" font-family="Times,serif" font-size="14.00">packages</text>
<text text-anchor="middle" x="719" y="-861.55" font-family="Times,serif" font-size="14.00">e.g. cmake, g++</text>
</g>
<!-- PKG&#45;&gt;ENV_IMG -->
<g id="edge11" class="edge">
<title>PKG&#45;&gt;ENV_IMG</title>
<path fill="none" stroke="black" stroke-dasharray="5,2" d="M707.12,-853.51C696.13,-836.64 679.52,-811.15 666.1,-790.55"/>
<polygon fill="black" stroke="black" points="668.96,-788.53 660.57,-782.06 663.1,-792.35 668.96,-788.53"/>
<text text-anchor="middle" x="716.5" y="-824.55" font-family="Times,serif" font-size="14.00">install</text>
</g>
<!-- SRC -->
<g id="node3" class="node">
<title>SRC</title>
<polygon fill="royalblue" stroke="black" points="1072.5,-773.62 1069.5,-777.62 1048.5,-777.62 1045.5,-773.62 999.5,-773.62 999.5,-737.62 1072.5,-737.62 1072.5,-773.62"/>
<text text-anchor="middle" x="1036" y="-751.92" font-family="Times,serif" font-size="14.00">git repo</text>
</g>
<!-- DEVEL_IMG -->
<g id="node6" class="node">
<title>DEVEL_IMG</title>
<path fill="royalblue" stroke="black" d="M927,-673.85C927,-676.49 880.39,-678.63 823,-678.63 765.61,-678.63 719,-676.49 719,-673.85 719,-673.85 719,-630.9 719,-630.9 719,-628.26 765.61,-626.12 823,-626.12 880.39,-626.12 927,-628.26 927,-630.9 927,-630.9 927,-673.85 927,-673.85"/>
<path fill="none" stroke="black" d="M927,-673.85C927,-671.22 880.39,-669.08 823,-669.08 765.61,-669.08 719,-671.22 719,-673.85"/>
<text text-anchor="middle" x="823" y="-656.17" font-family="Times,serif" font-size="14.00">cmake&#45;cpp:&lt;distro&gt;_devel</text>
<text text-anchor="middle" x="823" y="-641.17" font-family="Times,serif" font-size="14.00">devel</text>
</g>
<!-- SRC&#45;&gt;DEVEL_IMG -->
<g id="edge12" class="edge">
<title>SRC&#45;&gt;DEVEL_IMG</title>
<path fill="none" stroke="black" stroke-dasharray="5,2" d="M1009.39,-737.62C1004.66,-734.79 999.73,-731.98 995,-729.5 962.77,-712.59 925.99,-695.97 894.75,-682.6"/>
<polygon fill="black" stroke="black" points="895.81,-679.25 885.24,-678.55 893.07,-685.69 895.81,-679.25"/>
<text text-anchor="middle" x="975" y="-700.3" font-family="Times,serif" font-size="14.00">copy</text>
</g>
<!-- SPL -->
<g id="node4" class="node">
<title>SPL</title>
<polygon fill="royalblue" stroke="black" points="503,-477.88 500,-481.88 479,-481.88 476,-477.88 435,-477.88 435,-441.88 503,-441.88 503,-477.88"/>
<text text-anchor="middle" x="469" y="-456.18" font-family="Times,serif" font-size="14.00">sample</text>
</g>
<!-- INSTALL_DEVEL_IMG -->
<g id="node10" class="node">
<title>INSTALL_DEVEL_IMG</title>
<path fill="royalblue" stroke="black" d="M767.5,-378.1C767.5,-380.74 709.46,-382.88 638,-382.88 566.54,-382.88 508.5,-380.74 508.5,-378.1 508.5,-378.1 508.5,-335.15 508.5,-335.15 508.5,-332.51 566.54,-330.37 638,-330.37 709.46,-330.37 767.5,-332.51 767.5,-335.15 767.5,-335.15 767.5,-378.1 767.5,-378.1"/>
<path fill="none" stroke="black" d="M767.5,-378.1C767.5,-375.47 709.46,-373.33 638,-373.33 566.54,-373.33 508.5,-375.47 508.5,-378.1"/>
<text text-anchor="middle" x="638" y="-360.43" font-family="Times,serif" font-size="14.00">cmake&#45;cpp:&lt;distro&gt;_install_devel</text>
<text text-anchor="middle" x="638" y="-345.43" font-family="Times,serif" font-size="14.00">install_devel</text>
</g>
<!-- SPL&#45;&gt;INSTALL_DEVEL_IMG -->
<g id="edge7" class="edge">
<title>SPL&#45;&gt;INSTALL_DEVEL_IMG</title>
<path fill="none" stroke="black" stroke-dasharray="5,2" d="M497.67,-441.7C522.08,-427.08 557.73,-405.71 587,-388.18"/>
<polygon fill="black" stroke="black" points="589.08,-391.02 595.85,-382.87 585.48,-385.01 589.08,-391.02"/>
<text text-anchor="middle" x="580" y="-404.55" font-family="Times,serif" font-size="14.00">copy</text>
</g>
<!-- ENV_IMG&#45;&gt;DEVEL_IMG -->
<g id="edge1" class="edge">
<title>ENV_IMG&#45;&gt;DEVEL_IMG</title>
<path fill="none" stroke="black" d="M688.71,-729.34C713.25,-715.45 743.86,-698.14 769.65,-683.55"/>
<polygon fill="black" stroke="black" points="771.57,-686.49 778.55,-678.52 768.13,-680.39 771.57,-686.49"/>
</g>
<!-- INSTALL_ENV_IMG -->
<g id="node9" class="node">
<title>INSTALL_ENV_IMG</title>
<path fill="royalblue" stroke="black" d="M767,-481.35C767,-483.99 711.87,-486.13 644,-486.13 576.13,-486.13 521,-483.99 521,-481.35 521,-481.35 521,-438.4 521,-438.4 521,-435.76 576.13,-433.62 644,-433.62 711.87,-433.62 767,-435.76 767,-438.4 767,-438.4 767,-481.35 767,-481.35"/>
<path fill="none" stroke="black" d="M767,-481.35C767,-478.72 711.87,-476.58 644,-476.58 576.13,-476.58 521,-478.72 521,-481.35"/>
<text text-anchor="middle" x="644" y="-463.68" font-family="Times,serif" font-size="14.00">cmake&#45;cpp:&lt;distro&gt;_install_env</text>
<text text-anchor="middle" x="644" y="-448.68" font-family="Times,serif" font-size="14.00">install_env</text>
</g>
<!-- ENV_IMG&#45;&gt;INSTALL_ENV_IMG -->
<g id="edge4" class="edge">
<title>ENV_IMG&#45;&gt;INSTALL_ENV_IMG</title>
<path fill="none" stroke="black" d="M644,-729.33C644,-676.94 644,-556.49 644,-496.37"/>
<polygon fill="black" stroke="black" points="647.5,-496.22 644,-486.22 640.5,-496.22 647.5,-496.22"/>
</g>
<!-- ENV_TAR -->
<g id="node13" class="node">
<title>ENV_TAR</title>
<polygon fill="royalblue" stroke="black" points="130,-52 16,-52 16,-16 136,-16 136,-46 130,-52"/>
<polyline fill="none" stroke="black" points="130,-52 130,-46 "/>
<polyline fill="none" stroke="black" points="136,-46 130,-46 "/>
<text text-anchor="middle" x="76" y="-30.3" font-family="Times,serif" font-size="14.00">docker_env.tar</text>
</g>
<!-- ENV_IMG&#45;&gt;ENV_TAR -->
<g id="edge13" class="edge">
<title>ENV_IMG&#45;&gt;ENV_TAR</title>
<path fill="none" stroke="red" d="M546.38,-747C384.47,-733.03 78,-700.39 78,-653.38 78,-653.38 78,-653.38 78,-149.12 78,-119.36 77.31,-85.23 76.74,-62.11"/>
<polygon fill="red" stroke="red" points="80.24,-61.92 76.48,-52.01 73.24,-62.1 80.24,-61.92"/>
<text text-anchor="middle" x="168.5" y="-404.55" font-family="Times,serif" font-size="14.00">make save_&lt;distro&gt;_env</text>
</g>
<!-- BUILD_IMG -->
<g id="node7" class="node">
<title>BUILD_IMG</title>
<path fill="royalblue" stroke="black" d="M983,-584.6C983,-587.24 936.83,-589.38 880,-589.38 823.17,-589.38 777,-587.24 777,-584.6 777,-584.6 777,-541.65 777,-541.65 777,-539.01 823.17,-536.87 880,-536.87 936.83,-536.87 983,-539.01 983,-541.65 983,-541.65 983,-584.6 983,-584.6"/>
<path fill="none" stroke="black" d="M983,-584.6C983,-581.97 936.83,-579.83 880,-579.83 823.17,-579.83 777,-581.97 777,-584.6"/>
<text text-anchor="middle" x="880" y="-566.92" font-family="Times,serif" font-size="14.00">cmake&#45;cpp:&lt;distro&gt;_build</text>
<text text-anchor="middle" x="880" y="-551.92" font-family="Times,serif" font-size="14.00">build</text>
</g>
<!-- DEVEL_IMG&#45;&gt;BUILD_IMG -->
<g id="edge2" class="edge">
<title>DEVEL_IMG&#45;&gt;BUILD_IMG</title>
<path fill="none" stroke="black" d="M839.49,-626.14C845.28,-617.28 851.88,-607.17 858.04,-597.73"/>
<polygon fill="black" stroke="black" points="861.01,-599.59 863.55,-589.3 855.15,-595.76 861.01,-599.59"/>
</g>
<!-- DEVEL_TAR -->
<g id="node14" class="node">
<title>DEVEL_TAR</title>
<polygon fill="royalblue" stroke="black" points="283.5,-52 154.5,-52 154.5,-16 289.5,-16 289.5,-46 283.5,-52"/>
<polyline fill="none" stroke="black" points="283.5,-52 283.5,-46 "/>
<polyline fill="none" stroke="black" points="289.5,-46 283.5,-46 "/>
<text text-anchor="middle" x="222" y="-30.3" font-family="Times,serif" font-size="14.00">docker_devel.tar</text>
</g>
<!-- DEVEL_IMG&#45;&gt;DEVEL_TAR -->
<g id="edge14" class="edge">
<title>DEVEL_IMG&#45;&gt;DEVEL_TAR</title>
<path fill="none" stroke="red" d="M718.69,-644.94C561.48,-633.82 282,-607.89 282,-564.12 282,-564.12 282,-564.12 282,-149.12 282,-115.38 261.2,-81.81 244.09,-59.9"/>
<polygon fill="red" stroke="red" points="246.78,-57.66 237.76,-52.1 241.34,-62.07 246.78,-57.66"/>
<text text-anchor="middle" x="378.5" y="-352.93" font-family="Times,serif" font-size="14.00">make save_&lt;distro&gt;_devel</text>
</g>
<!-- TEST_IMG -->
<g id="node8" class="node">
<title>TEST_IMG</title>
<path fill="royalblue" stroke="black" d="M982.5,-481.35C982.5,-483.99 938.35,-486.13 884,-486.13 829.65,-486.13 785.5,-483.99 785.5,-481.35 785.5,-481.35 785.5,-438.4 785.5,-438.4 785.5,-435.76 829.65,-433.62 884,-433.62 938.35,-433.62 982.5,-435.76 982.5,-438.4 982.5,-438.4 982.5,-481.35 982.5,-481.35"/>
<path fill="none" stroke="black" d="M982.5,-481.35C982.5,-478.72 938.35,-476.58 884,-476.58 829.65,-476.58 785.5,-478.72 785.5,-481.35"/>
<text text-anchor="middle" x="884" y="-463.68" font-family="Times,serif" font-size="14.00">cmake&#45;cpp:&lt;distro&gt;_test</text>
<text text-anchor="middle" x="884" y="-448.68" font-family="Times,serif" font-size="14.00">test</text>
</g>
<!-- BUILD_IMG&#45;&gt;TEST_IMG -->
<g id="edge3" class="edge">
<title>BUILD_IMG&#45;&gt;TEST_IMG</title>
<path fill="none" stroke="black" d="M881,-536.84C881.48,-524.63 882.07,-509.79 882.59,-496.47"/>
<polygon fill="black" stroke="black" points="886.1,-496.32 883,-486.19 879.11,-496.05 886.1,-496.32"/>
</g>
<!-- BUILD_IMG&#45;&gt;INSTALL_ENV_IMG -->
<g id="edge5" class="edge">
<title>BUILD_IMG&#45;&gt;INSTALL_ENV_IMG</title>
<path fill="none" stroke="black" stroke-dasharray="5,2" d="M821.36,-536.97C788.29,-522.78 746.82,-504.99 712.29,-490.17"/>
<polygon fill="black" stroke="black" points="713.32,-486.81 702.75,-486.08 710.56,-493.24 713.32,-486.81"/>
<text text-anchor="middle" x="817" y="-507.8" font-family="Times,serif" font-size="14.00">copy install</text>
</g>
<!-- BUILD_TAR -->
<g id="node15" class="node">
<title>BUILD_TAR</title>
<polygon fill="royalblue" stroke="black" points="1367.5,-52 1240.5,-52 1240.5,-16 1373.5,-16 1373.5,-46 1367.5,-52"/>
<polyline fill="none" stroke="black" points="1367.5,-52 1367.5,-46 "/>
<polyline fill="none" stroke="black" points="1373.5,-46 1367.5,-46 "/>
<text text-anchor="middle" x="1307" y="-30.3" font-family="Times,serif" font-size="14.00">docker_build.tar</text>
</g>
<!-- BUILD_IMG&#45;&gt;BUILD_TAR -->
<g id="edge15" class="edge">
<title>BUILD_IMG&#45;&gt;BUILD_TAR</title>
<path fill="none" stroke="red" d="M983.23,-561.39C1127.24,-557.52 1371,-539.37 1371,-460.88 1371,-460.88 1371,-460.88 1371,-149.12 1371,-115.08 1349.07,-81.79 1330.88,-60.03"/>
<polygon fill="red" stroke="red" points="1333.35,-57.54 1324.15,-52.28 1328.07,-62.13 1333.35,-57.54"/>
<text text-anchor="middle" x="1466.5" y="-301.3" font-family="Times,serif" font-size="14.00">make save_&lt;distro&gt;_build</text>
</g>
<!-- TEST_TAR -->
<g id="node16" class="node">
<title>TEST_TAR</title>
<polygon fill="royalblue" stroke="black" points="1216.5,-52 1097.5,-52 1097.5,-16 1222.5,-16 1222.5,-46 1216.5,-52"/>
<polyline fill="none" stroke="black" points="1216.5,-52 1216.5,-46 "/>
<polyline fill="none" stroke="black" points="1222.5,-46 1216.5,-46 "/>
<text text-anchor="middle" x="1160" y="-30.3" font-family="Times,serif" font-size="14.00">docker_test.tar</text>
</g>
<!-- TEST_IMG&#45;&gt;TEST_TAR -->
<g id="edge16" class="edge">
<title>TEST_IMG&#45;&gt;TEST_TAR</title>
<path fill="none" stroke="red" d="M982.86,-441.69C1062.06,-425.02 1160,-396.54 1160,-357.62 1160,-357.62 1160,-357.62 1160,-149.12 1160,-119.36 1160,-85.24 1160,-62.11"/>
<polygon fill="red" stroke="red" points="1163.5,-62.01 1160,-52.01 1156.5,-62.02 1163.5,-62.01"/>
<text text-anchor="middle" x="1251.5" y="-249.68" font-family="Times,serif" font-size="14.00">make save_&lt;distro&gt;_test</text>
</g>
<!-- INSTALL_ENV_IMG&#45;&gt;INSTALL_DEVEL_IMG -->
<g id="edge6" class="edge">
<title>INSTALL_ENV_IMG&#45;&gt;INSTALL_DEVEL_IMG</title>
<path fill="none" stroke="black" d="M642.5,-433.59C641.78,-421.38 640.9,-406.54 640.11,-393.22"/>
<polygon fill="black" stroke="black" points="643.59,-392.72 639.5,-382.94 636.6,-393.13 643.59,-392.72"/>
</g>
<!-- INSTALL_ENV_TAR -->
<g id="node17" class="node">
<title>INSTALL_ENV_TAR</title>
<polygon fill="royalblue" stroke="black" points="1073.5,-52 908.5,-52 908.5,-16 1079.5,-16 1079.5,-46 1073.5,-52"/>
<polyline fill="none" stroke="black" points="1073.5,-52 1073.5,-46 "/>
<polyline fill="none" stroke="black" points="1079.5,-46 1073.5,-46 "/>
<text text-anchor="middle" x="994" y="-30.3" font-family="Times,serif" font-size="14.00">docker_install_env.tar</text>
</g>
<!-- INSTALL_ENV_IMG&#45;&gt;INSTALL_ENV_TAR -->
<g id="edge17" class="edge">
<title>INSTALL_ENV_IMG&#45;&gt;INSTALL_ENV_TAR</title>
<path fill="none" stroke="red" d="M697.98,-433.63C723.35,-420.4 753.17,-402.78 777,-382.75 845.73,-324.97 840.75,-288.94 906,-227.25 933.71,-201.05 955.59,-209.08 975,-176.25 995.86,-140.97 997.68,-92.2 996.37,-62.18"/>
<polygon fill="red" stroke="red" points="999.85,-61.8 995.77,-52.02 992.86,-62.21 999.85,-61.8"/>
<text text-anchor="middle" x="1022" y="-249.68" font-family="Times,serif" font-size="14.00">make save_&lt;distro&gt;_install_env</text>
</g>
<!-- INSTALL_BUILD_IMG -->
<g id="node11" class="node">
<title>INSTALL_BUILD_IMG</title>
<path fill="royalblue" stroke="black" d="M779.5,-274.85C779.5,-277.49 721.9,-279.63 651,-279.63 580.1,-279.63 522.5,-277.49 522.5,-274.85 522.5,-274.85 522.5,-231.9 522.5,-231.9 522.5,-229.26 580.1,-227.12 651,-227.12 721.9,-227.12 779.5,-229.26 779.5,-231.9 779.5,-231.9 779.5,-274.85 779.5,-274.85"/>
<path fill="none" stroke="black" d="M779.5,-274.85C779.5,-272.22 721.9,-270.08 651,-270.08 580.1,-270.08 522.5,-272.22 522.5,-274.85"/>
<text text-anchor="middle" x="651" y="-257.18" font-family="Times,serif" font-size="14.00">cmake&#45;cpp:&lt;distro&gt;_install_build</text>
<text text-anchor="middle" x="651" y="-242.18" font-family="Times,serif" font-size="14.00">install_build</text>
</g>
<!-- INSTALL_DEVEL_IMG&#45;&gt;INSTALL_BUILD_IMG -->
<g id="edge8" class="edge">
<title>INSTALL_DEVEL_IMG&#45;&gt;INSTALL_BUILD_IMG</title>
<path fill="none" stroke="black" d="M641.25,-330.34C642.81,-318.13 644.72,-303.29 646.43,-289.97"/>
<polygon fill="black" stroke="black" points="649.95,-290.06 647.75,-279.69 643,-289.16 649.95,-290.06"/>
</g>
<!-- INSTALL_DEVEL_TAR -->
<g id="node18" class="node">
<title>INSTALL_DEVEL_TAR</title>
<polygon fill="royalblue" stroke="black" points="488,-52 308,-52 308,-16 494,-16 494,-46 488,-52"/>
<polyline fill="none" stroke="black" points="488,-52 488,-46 "/>
<polyline fill="none" stroke="black" points="494,-46 488,-46 "/>
<text text-anchor="middle" x="401" y="-30.3" font-family="Times,serif" font-size="14.00">docker_install_devel.tar</text>
</g>
<!-- INSTALL_DEVEL_IMG&#45;&gt;INSTALL_DEVEL_TAR -->
<g id="edge18" class="edge">
<title>INSTALL_DEVEL_IMG&#45;&gt;INSTALL_DEVEL_TAR</title>
<path fill="none" stroke="red" d="M558.38,-330.58C502.55,-308.38 432.05,-269.89 398,-209.25 371.98,-162.91 383.08,-98.12 392.61,-62.02"/>
<polygon fill="red" stroke="red" points="396.03,-62.79 395.35,-52.21 389.29,-60.9 396.03,-62.79"/>
<text text-anchor="middle" x="520" y="-198.05" font-family="Times,serif" font-size="14.00">make save_&lt;distro&gt;_install_devel</text>
</g>
<!-- INSTALL_TEST_IMG -->
<g id="node12" class="node">
<title>INSTALL_TEST_IMG</title>
<path fill="royalblue" stroke="black" d="M683,-171.6C683,-174.24 627.42,-176.38 559,-176.38 490.58,-176.38 435,-174.24 435,-171.6 435,-171.6 435,-128.65 435,-128.65 435,-126.01 490.58,-123.87 559,-123.87 627.42,-123.87 683,-126.01 683,-128.65 683,-128.65 683,-171.6 683,-171.6"/>
<path fill="none" stroke="black" d="M683,-171.6C683,-168.97 627.42,-166.83 559,-166.83 490.58,-166.83 435,-168.97 435,-171.6"/>
<text text-anchor="middle" x="559" y="-153.93" font-family="Times,serif" font-size="14.00">cmake&#45;cpp:&lt;distro&gt;_install_test</text>
<text text-anchor="middle" x="559" y="-138.93" font-family="Times,serif" font-size="14.00">install_test</text>
</g>
<!-- INSTALL_BUILD_IMG&#45;&gt;INSTALL_TEST_IMG -->
<g id="edge9" class="edge">
<title>INSTALL_BUILD_IMG&#45;&gt;INSTALL_TEST_IMG</title>
<path fill="none" stroke="black" d="M654.1,-227.08C654.17,-216.14 652.45,-203.71 646,-194.25 643.18,-190.11 639.85,-186.36 636.15,-182.95"/>
<polygon fill="black" stroke="black" points="638.09,-180.01 628.12,-176.43 633.68,-185.45 638.09,-180.01"/>
</g>
<!-- INSTALL_BUILD_TAR -->
<g id="node19" class="node">
<title>INSTALL_BUILD_TAR</title>
<polygon fill="royalblue" stroke="black" points="884,-52 706,-52 706,-16 890,-16 890,-46 884,-52"/>
<polyline fill="none" stroke="black" points="884,-52 884,-46 "/>
<polyline fill="none" stroke="black" points="890,-46 884,-46 "/>
<text text-anchor="middle" x="798" y="-30.3" font-family="Times,serif" font-size="14.00">docker_install_build.tar</text>
</g>
<!-- INSTALL_BUILD_IMG&#45;&gt;INSTALL_BUILD_TAR -->
<g id="edge19" class="edge">
<title>INSTALL_BUILD_IMG&#45;&gt;INSTALL_BUILD_TAR</title>
<path fill="none" stroke="red" d="M664.84,-227.1C680.4,-199.24 706.93,-153.39 733,-116 746.61,-96.48 763.47,-75.55 776.6,-59.86"/>
<polygon fill="red" stroke="red" points="779.32,-62.07 783.09,-52.17 773.97,-57.55 779.32,-62.07"/>
<text text-anchor="middle" x="854" y="-146.43" font-family="Times,serif" font-size="14.00">make save_&lt;distro&gt;_install_build</text>
</g>
<!-- INSTALL_TEST_TAR -->
<g id="node20" class="node">
<title>INSTALL_TEST_TAR</title>
<polygon fill="royalblue" stroke="black" points="682,-52 512,-52 512,-16 688,-16 688,-46 682,-52"/>
<polyline fill="none" stroke="black" points="682,-52 682,-46 "/>
<polyline fill="none" stroke="black" points="688,-46 682,-46 "/>
<text text-anchor="middle" x="600" y="-30.3" font-family="Times,serif" font-size="14.00">docker_install_test.tar</text>
</g>
<!-- INSTALL_TEST_IMG&#45;&gt;INSTALL_TEST_TAR -->
<g id="edge20" class="edge">
<title>INSTALL_TEST_IMG&#45;&gt;INSTALL_TEST_TAR</title>
<path fill="none" stroke="red" d="M483.19,-123.88C468.72,-115.03 460.86,-103.99 471,-91 480.02,-79.44 489.24,-88.06 503,-83 522.49,-75.83 543.24,-65.91 560.52,-56.94"/>
<polygon fill="red" stroke="red" points="562.52,-59.84 569.73,-52.08 559.25,-53.65 562.52,-59.84"/>
<text text-anchor="middle" x="588" y="-94.8" font-family="Times,serif" font-size="14.00">make save_&lt;distro&gt;_install_test</text>
</g>
</g>
</svg>
