<?xml version="1.0" encoding="UTF-8" standalone="no"?>
<!DOCTYPE svg PUBLIC "-//W3C//DTD SVG 1.1//EN"
 "http://www.w3.org/Graphics/SVG/1.1/DTD/svg11.dtd">
<!-- Generated by graphviz version 2.42.3 (0)
 -->
<!-- Title: DockerDeps Pages: 1 -->
<svg width="1393pt" height="797pt"
 viewBox="0.00 0.00 1393.00 796.50" xmlns="http://www.w3.org/2000/svg" xmlns:xlink="http://www.w3.org/1999/xlink">
<g id="graph0" class="graph" transform="scale(1 1) rotate(0) translate(4 792.5)">
<title>DockerDeps</title>
<polygon fill="white" stroke="transparent" points="-4,4 -4,-792.5 1389,-792.5 1389,4 -4,4"/>
<g id="clust1" class="cluster">
<title>clusterDockerfile</title>
<polygon fill="none" stroke="royalblue" points="435,-116 435,-709.5 926,-709.5 926,-116 435,-116"/>
<text text-anchor="middle" x="680.5" y="-694.3" font-family="Times,serif" font-size="14.00">docker/&lt;distro&gt;/Dockerfile</text>
</g>
<g id="clust2" class="cluster">
<title>clusterCache</title>
<polygon fill="none" stroke="royalblue" points="8,-8 8,-83 1192,-83 1192,-8 8,-8"/>
<text text-anchor="middle" x="600" y="-67.8" font-family="Times,serif" font-size="14.00">cache/&lt;distro&gt;/</text>
</g>
<!-- DISTRO_IMG -->
<g id="node1" class="node">
<title>DISTRO_IMG</title>
<path fill="royalblue" stroke="black" d="M562,-784.23C562,-786.03 533.31,-787.5 498,-787.5 462.69,-787.5 434,-786.03 434,-784.23 434,-784.23 434,-754.77 434,-754.77 434,-752.97 462.69,-751.5 498,-751.5 533.31,-751.5 562,-752.97 562,-754.77 562,-754.77 562,-784.23 562,-784.23"/>
<path fill="none" stroke="black" d="M562,-784.23C562,-782.42 533.31,-780.95 498,-780.95 462.69,-780.95 434,-782.42 434,-784.23"/>
<text text-anchor="middle" x="498" y="-765.8" font-family="Times,serif" font-size="14.00">&lt;distro&gt;:latest</text>
</g>
<!-- ENV_IMG -->
<g id="node4" class="node">
<title>ENV_IMG</title>
<path fill="royalblue" stroke="black" d="M670.5,-673.85C670.5,-676.49 626.8,-678.63 573,-678.63 519.2,-678.63 475.5,-676.49 475.5,-673.85 475.5,-673.85 475.5,-630.9 475.5,-630.9 475.5,-628.26 519.2,-626.12 573,-626.12 626.8,-626.12 670.5,-628.26 670.5,-630.9 670.5,-630.9 670.5,-673.85 670.5,-673.85"/>
<path fill="none" stroke="black" d="M670.5,-673.85C670.5,-671.22 626.8,-669.08 573,-669.08 519.2,-669.08 475.5,-671.22 475.5,-673.85"/>
<text text-anchor="middle" x="573" y="-656.17" font-family="Times,serif" font-size="14.00">cmake&#45;cpp:&lt;distro&gt;_env</text>
<text text-anchor="middle" x="573" y="-641.17" font-family="Times,serif" font-size="14.00">env</text>
</g>
<!-- DISTRO_IMG&#45;&gt;ENV_IMG -->
<g id="edge8" class="edge">
<title>DISTRO_IMG&#45;&gt;ENV_IMG</title>
<path fill="none" stroke="black" d="M509.39,-751.01C520.36,-734.17 537.25,-708.24 550.87,-687.34"/>
<polygon fill="black" stroke="black" points="553.96,-689.02 556.48,-678.73 548.09,-685.19 553.96,-689.02"/>
</g>
<!-- PKG -->
<g id="node2" class="node">
<title>PKG</title>
<polygon fill="royalblue" stroke="black" points="715.5,-788.5 584.5,-788.5 580.5,-784.5 580.5,-750.5 711.5,-750.5 715.5,-754.5 715.5,-788.5"/>
<polyline fill="none" stroke="black" points="711.5,-784.5 580.5,-784.5 "/>
<polyline fill="none" stroke="black" points="711.5,-784.5 711.5,-750.5 "/>
<polyline fill="none" stroke="black" points="711.5,-784.5 715.5,-788.5 "/>
<text text-anchor="middle" x="648" y="-773.3" font-family="Times,serif" font-size="14.00">packages</text>
<text text-anchor="middle" x="648" y="-758.3" font-family="Times,serif" font-size="14.00">e.g. cmake, g++</text>
</g>
<!-- PKG&#45;&gt;ENV_IMG -->
<g id="edge9" class="edge">
<title>PKG&#45;&gt;ENV_IMG</title>
<path fill="none" stroke="black" stroke-dasharray="5,2" d="M636.12,-750.26C625.13,-733.39 608.52,-707.9 595.1,-687.3"/>
<polygon fill="black" stroke="black" points="597.96,-685.28 589.57,-678.81 592.1,-689.1 597.96,-685.28"/>
<text text-anchor="middle" x="645.5" y="-721.3" font-family="Times,serif" font-size="14.00">install</text>
</g>
<!-- SRC -->
<g id="node3" class="node">
<title>SRC</title>
<polygon fill="royalblue" stroke="black" points="1007.5,-670.38 1004.5,-674.38 983.5,-674.38 980.5,-670.38 934.5,-670.38 934.5,-634.38 1007.5,-634.38 1007.5,-670.38"/>
<text text-anchor="middle" x="971" y="-648.67" font-family="Times,serif" font-size="14.00">git repo</text>
</g>
<!-- DEVEL_IMG -->
<g id="node5" class="node">
<title>DEVEL_IMG</title>
<path fill="royalblue" stroke="black" d="M886,-570.6C886,-573.24 839.39,-575.38 782,-575.38 724.61,-575.38 678,-573.24 678,-570.6 678,-570.6 678,-527.65 678,-527.65 678,-525.01 724.61,-522.87 782,-522.87 839.39,-522.87 886,-525.01 886,-527.65 886,-527.65 886,-570.6 886,-570.6"/>
<path fill="none" stroke="black" d="M886,-570.6C886,-567.97 839.39,-565.83 782,-565.83 724.61,-565.83 678,-567.97 678,-570.6"/>
<text text-anchor="middle" x="782" y="-552.92" font-family="Times,serif" font-size="14.00">cmake&#45;cpp:&lt;distro&gt;_devel</text>
<text text-anchor="middle" x="782" y="-537.92" font-family="Times,serif" font-size="14.00">devel</text>
</g>
<!-- SRC&#45;&gt;DEVEL_IMG -->
<g id="edge10" class="edge">
<title>SRC&#45;&gt;DEVEL_IMG</title>
<path fill="none" stroke="black" stroke-dasharray="5,2" d="M943.82,-634.33C939.24,-631.57 934.51,-628.79 930,-626.25 901.49,-610.21 869.26,-593.47 842.16,-579.79"/>
<polygon fill="black" stroke="black" points="843.69,-576.64 833.19,-575.27 840.55,-582.89 843.69,-576.64"/>
<text text-anchor="middle" x="910" y="-597.05" font-family="Times,serif" font-size="14.00">copy</text>
</g>
<!-- ENV_IMG&#45;&gt;DEVEL_IMG -->
<g id="edge1" class="edge">
<title>ENV_IMG&#45;&gt;DEVEL_IMG</title>
<path fill="none" stroke="black" d="M624.93,-626.22C653.97,-612.15 690.32,-594.54 720.74,-579.8"/>
<polygon fill="black" stroke="black" points="722.5,-582.84 729.97,-575.33 719.45,-576.54 722.5,-582.84"/>
</g>
<!-- INSTALL_DEVEL_IMG -->
<g id="node8" class="node">
<title>INSTALL_DEVEL_IMG</title>
<path fill="royalblue" stroke="black" d="M702.5,-378.1C702.5,-380.74 644.46,-382.88 573,-382.88 501.54,-382.88 443.5,-380.74 443.5,-378.1 443.5,-378.1 443.5,-335.15 443.5,-335.15 443.5,-332.51 501.54,-330.37 573,-330.37 644.46,-330.37 702.5,-332.51 702.5,-335.15 702.5,-335.15 702.5,-378.1 702.5,-378.1"/>
<path fill="none" stroke="black" d="M702.5,-378.1C702.5,-375.47 644.46,-373.33 573,-373.33 501.54,-373.33 443.5,-375.47 443.5,-378.1"/>
<text text-anchor="middle" x="573" y="-360.43" font-family="Times,serif" font-size="14.00">cmake&#45;cpp:&lt;distro&gt;_install_devel</text>
<text text-anchor="middle" x="573" y="-345.43" font-family="Times,serif" font-size="14.00">install_devel</text>
</g>
<!-- ENV_IMG&#45;&gt;INSTALL_DEVEL_IMG -->
<g id="edge5" class="edge">
<title>ENV_IMG&#45;&gt;INSTALL_DEVEL_IMG</title>
<path fill="none" stroke="black" d="M573,-626.08C573,-573.69 573,-453.24 573,-393.12"/>
<polygon fill="black" stroke="black" points="576.5,-392.97 573,-382.97 569.5,-392.97 576.5,-392.97"/>
</g>
<!-- ENV_TAR -->
<g id="node11" class="node">
<title>ENV_TAR</title>
<polygon fill="royalblue" stroke="black" points="130,-52 16,-52 16,-16 136,-16 136,-46 130,-52"/>
<polyline fill="none" stroke="black" points="130,-52 130,-46 "/>
<polyline fill="none" stroke="black" points="136,-46 130,-46 "/>
<text text-anchor="middle" x="76" y="-30.3" font-family="Times,serif" font-size="14.00">docker_env.tar</text>
</g>
<!-- ENV_IMG&#45;&gt;ENV_TAR -->
<g id="edge11" class="edge">
<title>ENV_IMG&#45;&gt;ENV_TAR</title>
<path fill="none" stroke="red" d="M475.46,-643.57C315.01,-629.4 13,-596.56 13,-550.12 13,-550.12 13,-550.12 13,-149.12 13,-115.21 34.59,-81.89 52.49,-60.1"/>
<polygon fill="red" stroke="red" points="55.29,-62.21 59.12,-52.33 49.96,-57.67 55.29,-62.21"/>
<text text-anchor="middle" x="103.5" y="-352.93" font-family="Times,serif" font-size="14.00">make save_&lt;distro&gt;_env</text>
</g>
<!-- BUILD_IMG -->
<g id="node6" class="node">
<title>BUILD_IMG</title>
<path fill="royalblue" stroke="black" d="M894,-481.35C894,-483.99 847.83,-486.13 791,-486.13 734.17,-486.13 688,-483.99 688,-481.35 688,-481.35 688,-438.4 688,-438.4 688,-435.76 734.17,-433.62 791,-433.62 847.83,-433.62 894,-435.76 894,-438.4 894,-438.4 894,-481.35 894,-481.35"/>
<path fill="none" stroke="black" d="M894,-481.35C894,-478.72 847.83,-476.58 791,-476.58 734.17,-476.58 688,-478.72 688,-481.35"/>
<text text-anchor="middle" x="791" y="-463.68" font-family="Times,serif" font-size="14.00">cmake&#45;cpp:&lt;distro&gt;_build</text>
<text text-anchor="middle" x="791" y="-448.68" font-family="Times,serif" font-size="14.00">build</text>
</g>
<!-- DEVEL_IMG&#45;&gt;BUILD_IMG -->
<g id="edge2" class="edge">
<title>DEVEL_IMG&#45;&gt;BUILD_IMG</title>
<path fill="none" stroke="black" d="M784.6,-522.89C785.46,-514.57 786.43,-505.16 787.35,-496.22"/>
<polygon fill="black" stroke="black" points="790.86,-496.36 788.4,-486.05 783.89,-495.64 790.86,-496.36"/>
</g>
<!-- DEVEL_TAR -->
<g id="node12" class="node">
<title>DEVEL_TAR</title>
<polygon fill="royalblue" stroke="black" points="283.5,-52 154.5,-52 154.5,-16 289.5,-16 289.5,-46 283.5,-52"/>
<polyline fill="none" stroke="black" points="283.5,-52 283.5,-46 "/>
<polyline fill="none" stroke="black" points="289.5,-46 283.5,-46 "/>
<text text-anchor="middle" x="222" y="-30.3" font-family="Times,serif" font-size="14.00">docker_devel.tar</text>
</g>
<!-- DEVEL_IMG&#45;&gt;DEVEL_TAR -->
<g id="edge12" class="edge">
<title>DEVEL_IMG&#45;&gt;DEVEL_TAR</title>
<path fill="none" stroke="red" d="M677.98,-542.3C516.03,-531.82 222,-506.51 222,-460.88 222,-460.88 222,-460.88 222,-149.12 222,-119.36 222,-85.24 222,-62.11"/>
<polygon fill="red" stroke="red" points="225.5,-62.01 222,-52.01 218.5,-62.02 225.5,-62.01"/>
<text text-anchor="middle" x="318.5" y="-301.3" font-family="Times,serif" font-size="14.00">make save_&lt;distro&gt;_devel</text>
</g>
<!-- TEST_IMG -->
<g id="node7" class="node">
<title>TEST_IMG</title>
<path fill="royalblue" stroke="black" d="M917.5,-378.1C917.5,-380.74 873.35,-382.88 819,-382.88 764.65,-382.88 720.5,-380.74 720.5,-378.1 720.5,-378.1 720.5,-335.15 720.5,-335.15 720.5,-332.51 764.65,-330.37 819,-330.37 873.35,-330.37 917.5,-332.51 917.5,-335.15 917.5,-335.15 917.5,-378.1 917.5,-378.1"/>
<path fill="none" stroke="black" d="M917.5,-378.1C917.5,-375.47 873.35,-373.33 819,-373.33 764.65,-373.33 720.5,-375.47 720.5,-378.1"/>
<text text-anchor="middle" x="819" y="-360.43" font-family="Times,serif" font-size="14.00">cmake&#45;cpp:&lt;distro&gt;_test</text>
<text text-anchor="middle" x="819" y="-345.43" font-family="Times,serif" font-size="14.00">test</text>
</g>
<!-- BUILD_IMG&#45;&gt;TEST_IMG -->
<g id="edge3" class="edge">
<title>BUILD_IMG&#45;&gt;TEST_IMG</title>
<path fill="none" stroke="black" d="M797.99,-433.59C801.4,-421.26 805.55,-406.24 809.27,-392.82"/>
<polygon fill="black" stroke="black" points="812.71,-393.51 812,-382.94 805.96,-391.65 812.71,-393.51"/>
</g>
<!-- BUILD_IMG&#45;&gt;INSTALL_DEVEL_IMG -->
<g id="edge4" class="edge">
<title>BUILD_IMG&#45;&gt;INSTALL_DEVEL_IMG</title>
<path fill="none" stroke="black" stroke-dasharray="5,2" d="M736.83,-433.72C706.42,-419.59 668.3,-401.89 636.49,-387.11"/>
<polygon fill="black" stroke="black" points="637.81,-383.87 627.27,-382.83 634.86,-390.22 637.81,-383.87"/>
<text text-anchor="middle" x="736" y="-404.55" font-family="Times,serif" font-size="14.00">copy install</text>
</g>
<!-- BUILD_TAR -->
<g id="node13" class="node">
<title>BUILD_TAR</title>
<polygon fill="royalblue" stroke="black" points="1177.5,-52 1050.5,-52 1050.5,-16 1183.5,-16 1183.5,-46 1177.5,-52"/>
<polyline fill="none" stroke="black" points="1177.5,-52 1177.5,-46 "/>
<polyline fill="none" stroke="black" points="1183.5,-46 1177.5,-46 "/>
<text text-anchor="middle" x="1117" y="-30.3" font-family="Times,serif" font-size="14.00">docker_build.tar</text>
</g>
<!-- BUILD_IMG&#45;&gt;BUILD_TAR -->
<g id="edge13" class="edge">
<title>BUILD_IMG&#45;&gt;BUILD_TAR</title>
<path fill="none" stroke="red" d="M894.26,-453.24C1013.66,-443.83 1194,-419.39 1194,-357.62 1194,-357.62 1194,-357.62 1194,-149.12 1194,-113.42 1167.78,-80.52 1145.94,-59.32"/>
<polygon fill="red" stroke="red" points="1148.15,-56.59 1138.45,-52.32 1143.37,-61.7 1148.15,-56.59"/>
<text text-anchor="middle" x="1289.5" y="-249.68" font-family="Times,serif" font-size="14.00">make save_&lt;distro&gt;_build</text>
</g>
<!-- TEST_TAR -->
<g id="node14" class="node">
<title>TEST_TAR</title>
<polygon fill="royalblue" stroke="black" points="1026.5,-52 907.5,-52 907.5,-16 1032.5,-16 1032.5,-46 1026.5,-52"/>
<polyline fill="none" stroke="black" points="1026.5,-52 1026.5,-46 "/>
<polyline fill="none" stroke="black" points="1032.5,-46 1026.5,-46 "/>
<text text-anchor="middle" x="970" y="-30.3" font-family="Times,serif" font-size="14.00">docker_test.tar</text>
</g>
<!-- TEST_IMG&#45;&gt;TEST_TAR -->
<g id="edge14" class="edge">
<title>TEST_IMG&#45;&gt;TEST_TAR</title>
<path fill="none" stroke="red" d="M861.01,-330.34C898.59,-305.03 951.14,-262.27 974,-209.25 994.84,-160.9 985.5,-97.78 977.38,-62.3"/>
<polygon fill="red" stroke="red" points="980.7,-61.11 974.94,-52.22 973.9,-62.77 980.7,-61.11"/>
<text text-anchor="middle" x="1069.5" y="-198.05" font-family="Times,serif" font-size="14.00">make save_&lt;distro&gt;_test</text>
</g>
<!-- INSTALL_BUILD_IMG -->
<g id="node9" class="node">
<title>INSTALL_BUILD_IMG</title>
<path fill="royalblue" stroke="black" d="M700.5,-274.85C700.5,-277.49 642.9,-279.63 572,-279.63 501.1,-279.63 443.5,-277.49 443.5,-274.85 443.5,-274.85 443.5,-231.9 443.5,-231.9 443.5,-229.26 501.1,-227.12 572,-227.12 642.9,-227.12 700.5,-229.26 700.5,-231.9 700.5,-231.9 700.5,-274.85 700.5,-274.85"/>
<path fill="none" stroke="black" d="M700.5,-274.85C700.5,-272.22 642.9,-270.08 572,-270.08 501.1,-270.08 443.5,-272.22 443.5,-274.85"/>
<text text-anchor="middle" x="572" y="-257.18" font-family="Times,serif" font-size="14.00">cmake&#45;cpp:&lt;distro&gt;_install_build</text>
<text text-anchor="middle" x="572" y="-242.18" font-family="Times,serif" font-size="14.00">install_build</text>
</g>
<!-- INSTALL_DEVEL_IMG&#45;&gt;INSTALL_BUILD_IMG -->
<g id="edge6" class="edge">
<title>INSTALL_DEVEL_IMG&#45;&gt;INSTALL_BUILD_IMG</title>
<path fill="none" stroke="black" d="M572.75,-330.34C572.63,-318.13 572.48,-303.29 572.35,-289.97"/>
<polygon fill="black" stroke="black" points="575.85,-289.66 572.25,-279.69 568.85,-289.73 575.85,-289.66"/>
</g>
<!-- INSTALL_DEVEL_TAR -->
<g id="node15" class="node">
<title>INSTALL_DEVEL_TAR</title>
<polygon fill="royalblue" stroke="black" points="884,-52 704,-52 704,-16 890,-16 890,-46 884,-52"/>
<polyline fill="none" stroke="black" points="884,-52 884,-46 "/>
<polyline fill="none" stroke="black" points="890,-46 884,-46 "/>
<text text-anchor="middle" x="797" y="-30.3" font-family="Times,serif" font-size="14.00">docker_install_devel.tar</text>
</g>
<!-- INSTALL_DEVEL_IMG&#45;&gt;INSTALL_DEVEL_TAR -->
<g id="edge15" class="edge">
<title>INSTALL_DEVEL_IMG&#45;&gt;INSTALL_DEVEL_TAR</title>
<path fill="none" stroke="red" d="M644.82,-330.39C668.97,-318.51 693.85,-301.9 710,-279.5 732.54,-248.23 700.29,-222.97 726,-194.25 744.28,-173.82 767.77,-197.57 785,-176.25 810.88,-144.23 808.06,-93.75 803,-62.6"/>
<polygon fill="red" stroke="red" points="806.39,-61.67 801.16,-52.45 799.5,-62.92 806.39,-61.67"/>
<text text-anchor="middle" x="848" y="-198.05" font-family="Times,serif" font-size="14.00">make save_&lt;distro&gt;_install_devel</text>
</g>
<!-- INSTALL_TEST_IMG -->
<g id="node10" class="node">
<title>INSTALL_TEST_IMG</title>
<path fill="royalblue" stroke="black" d="M776,-171.6C776,-174.24 720.42,-176.38 652,-176.38 583.58,-176.38 528,-174.24 528,-171.6 528,-171.6 528,-128.65 528,-128.65 528,-126.01 583.58,-123.87 652,-123.87 720.42,-123.87 776,-126.01 776,-128.65 776,-128.65 776,-171.6 776,-171.6"/>
<path fill="none" stroke="black" d="M776,-171.6C776,-168.97 720.42,-166.83 652,-166.83 583.58,-166.83 528,-168.97 528,-171.6"/>
<text text-anchor="middle" x="652" y="-153.93" font-family="Times,serif" font-size="14.00">cmake&#45;cpp:&lt;distro&gt;_install_test</text>
<text text-anchor="middle" x="652" y="-138.93" font-family="Times,serif" font-size="14.00">install_test</text>
</g>
<!-- INSTALL_BUILD_IMG&#45;&gt;INSTALL_TEST_IMG -->
<g id="edge7" class="edge">
<title>INSTALL_BUILD_IMG&#45;&gt;INSTALL_TEST_IMG</title>
<path fill="none" stroke="black" d="M591.98,-227.09C602.19,-214.16 614.75,-198.26 625.74,-184.36"/>
<polygon fill="black" stroke="black" points="628.54,-186.46 632,-176.44 623.05,-182.12 628.54,-186.46"/>
</g>
<!-- INSTALL_BUILD_TAR -->
<g id="node16" class="node">
<title>INSTALL_BUILD_TAR</title>
<polygon fill="royalblue" stroke="black" points="486,-52 308,-52 308,-16 492,-16 492,-46 486,-52"/>
<polyline fill="none" stroke="black" points="486,-52 486,-46 "/>
<polyline fill="none" stroke="black" points="492,-46 486,-46 "/>
<text text-anchor="middle" x="400" y="-30.3" font-family="Times,serif" font-size="14.00">docker_install_build.tar</text>
</g>
<!-- INSTALL_BUILD_IMG&#45;&gt;INSTALL_BUILD_TAR -->
<g id="edge16" class="edge">
<title>INSTALL_BUILD_IMG&#45;&gt;INSTALL_BUILD_TAR</title>
<path fill="none" stroke="red" d="M443.26,-234.96C373.8,-222.63 298.06,-203.43 277,-176.25 260.6,-155.08 264.3,-139.57 277,-116 291.47,-89.14 319.18,-69.72 344.64,-56.64"/>
<polygon fill="red" stroke="red" points="346.46,-59.65 353.89,-52.1 343.37,-53.36 346.46,-59.65"/>
<text text-anchor="middle" x="398" y="-146.43" font-family="Times,serif" font-size="14.00">make save_&lt;distro&gt;_install_build</text>
</g>
<!-- INSTALL_TEST_TAR -->
<g id="node17" class="node">
<title>INSTALL_TEST_TAR</title>
<polygon fill="royalblue" stroke="black" points="680,-52 510,-52 510,-16 686,-16 686,-46 680,-52"/>
<polyline fill="none" stroke="black" points="680,-52 680,-46 "/>
<polyline fill="none" stroke="black" points="686,-46 680,-46 "/>
<text text-anchor="middle" x="598" y="-30.3" font-family="Times,serif" font-size="14.00">docker_install_test.tar</text>
</g>
<!-- INSTALL_TEST_IMG&#45;&gt;INSTALL_TEST_TAR -->
<g id="edge17" class="edge">
<title>INSTALL_TEST_IMG&#45;&gt;INSTALL_TEST_TAR</title>
<path fill="none" stroke="red" d="M573.85,-124.24C566.85,-119.23 560.67,-113.21 556,-106 546.15,-90.78 556.31,-73.26 569.09,-59.43"/>
<polygon fill="red" stroke="red" points="571.76,-61.71 576.36,-52.16 566.81,-56.76 571.76,-61.71"/>
<text text-anchor="middle" x="673" y="-94.8" font-family="Times,serif" font-size="14.00">make save_&lt;distro&gt;_install_test</text>
</g>
</g>
</svg>
