<?xml version="1.0" encoding="UTF-8" standalone="no"?>
<!DOCTYPE svg PUBLIC "-//W3C//DTD SVG 1.1//EN"
 "http://www.w3.org/Graphics/SVG/1.1/DTD/svg11.dtd">
<!-- Generated by graphviz version 2.49.3 (0)
 -->
<!-- Title: DockerDeps Pages: 1 -->
<svg width="1570pt" height="900pt"
 viewBox="0.00 0.00 1570.00 899.75" xmlns="http://www.w3.org/2000/svg" xmlns:xlink="http://www.w3.org/1999/xlink">
<g id="graph0" class="graph" transform="scale(1 1) rotate(0) translate(4 895.75)">
<title>DockerDeps</title>
<polygon fill="white" stroke="transparent" points="-4,4 -4,-895.75 1566,-895.75 1566,4 -4,4"/>
<g id="clust1" class="cluster">
<title>clusterDockerfile</title>
<polygon fill="none" stroke="royalblue" points="428,-116 428,-812.75 999,-812.75 999,-116 428,-116"/>
<text text-anchor="middle" x="713.5" y="-797.55" font-family="Times,serif" font-size="14.00">docker/&lt;distro&gt;/Dockerfile</text>
</g>
<g id="clust2" class="cluster">
<title>clusterCache</title>
<polygon fill="none" stroke="royalblue" points="8,-8 8,-83 1382,-83 1382,-8 8,-8"/>
<text text-anchor="middle" x="695" y="-67.8" font-family="Times,serif" font-size="14.00">cache/&lt;distro&gt;/</text>
</g>
<!-- DISTRO_IMG -->
<g id="node1" class="node">
<title>DISTRO_IMG</title>
<path fill="royalblue" stroke="black" d="M641,-887.48C641,-889.28 612.31,-890.75 577,-890.75 541.69,-890.75 513,-889.28 513,-887.48 513,-887.48 513,-858.02 513,-858.02 513,-856.22 541.69,-854.75 577,-854.75 612.31,-854.75 641,-856.22 641,-858.02 641,-858.02 641,-887.48 641,-887.48"/>
<path fill="none" stroke="black" d="M641,-887.48C641,-885.67 612.31,-884.2 577,-884.2 541.69,-884.2 513,-885.67 513,-887.48"/>
<text text-anchor="middle" x="577" y="-869.05" font-family="Times,serif" font-size="14.00">&lt;distro&gt;:latest</text>
</g>
<!-- ENV_IMG -->
<g id="node5" class="node">
<title>ENV_IMG</title>
<path fill="royalblue" stroke="black" d="M749.5,-777.1C749.5,-779.74 705.8,-781.88 652,-781.88 598.2,-781.88 554.5,-779.74 554.5,-777.1 554.5,-777.1 554.5,-734.15 554.5,-734.15 554.5,-731.51 598.2,-729.37 652,-729.37 705.8,-729.37 749.5,-731.51 749.5,-734.15 749.5,-734.15 749.5,-777.1 749.5,-777.1"/>
<path fill="none" stroke="black" d="M749.5,-777.1C749.5,-774.47 705.8,-772.33 652,-772.33 598.2,-772.33 554.5,-774.47 554.5,-777.1"/>
<text text-anchor="middle" x="652" y="-759.42" font-family="Times,serif" font-size="14.00">cmake&#45;cpp:&lt;distro&gt;_env</text>
<text text-anchor="middle" x="652" y="-744.42" font-family="Times,serif" font-size="14.00">env</text>
</g>
<!-- DISTRO_IMG&#45;&gt;ENV_IMG -->
<g id="edge10" class="edge">
<title>DISTRO_IMG&#45;&gt;ENV_IMG</title>
<path fill="none" stroke="black" d="M588.39,-854.26C599.36,-837.42 616.25,-811.49 629.87,-790.59"/>
<polygon fill="black" stroke="black" points="632.96,-792.27 635.48,-781.98 627.09,-788.44 632.96,-792.27"/>
</g>
<!-- PKG -->
<g id="node2" class="node">
<title>PKG</title>
<polygon fill="royalblue" stroke="black" points="794.5,-891.75 663.5,-891.75 659.5,-887.75 659.5,-853.75 790.5,-853.75 794.5,-857.75 794.5,-891.75"/>
<polyline fill="none" stroke="black" points="790.5,-887.75 659.5,-887.75 "/>
<polyline fill="none" stroke="black" points="790.5,-887.75 790.5,-853.75 "/>
<polyline fill="none" stroke="black" points="790.5,-887.75 794.5,-891.75 "/>
<text text-anchor="middle" x="727" y="-876.55" font-family="Times,serif" font-size="14.00">packages</text>
<text text-anchor="middle" x="727" y="-861.55" font-family="Times,serif" font-size="14.00">e.g. cmake, g++</text>
</g>
<!-- PKG&#45;&gt;ENV_IMG -->
<g id="edge11" class="edge">
<title>PKG&#45;&gt;ENV_IMG</title>
<path fill="none" stroke="black" stroke-dasharray="5,2" d="M715.12,-853.51C704.13,-836.64 687.52,-811.15 674.1,-790.55"/>
<polygon fill="black" stroke="black" points="676.96,-788.53 668.57,-782.06 671.1,-792.35 676.96,-788.53"/>
<text text-anchor="middle" x="724.5" y="-824.55" font-family="Times,serif" font-size="14.00">install</text>
</g>
<!-- SRC -->
<g id="node3" class="node">
<title>SRC</title>
<polygon fill="royalblue" stroke="black" points="1080.5,-773.62 1077.5,-777.62 1056.5,-777.62 1053.5,-773.62 1007.5,-773.62 1007.5,-737.62 1080.5,-737.62 1080.5,-773.62"/>
<text text-anchor="middle" x="1044" y="-751.92" font-family="Times,serif" font-size="14.00">git repo</text>
</g>
<!-- DEVEL_IMG -->
<g id="node6" class="node">
<title>DEVEL_IMG</title>
<path fill="royalblue" stroke="black" d="M935,-673.85C935,-676.49 888.39,-678.63 831,-678.63 773.61,-678.63 727,-676.49 727,-673.85 727,-673.85 727,-630.9 727,-630.9 727,-628.26 773.61,-626.12 831,-626.12 888.39,-626.12 935,-628.26 935,-630.9 935,-630.9 935,-673.85 935,-673.85"/>
<path fill="none" stroke="black" d="M935,-673.85C935,-671.22 888.39,-669.08 831,-669.08 773.61,-669.08 727,-671.22 727,-673.85"/>
<text text-anchor="middle" x="831" y="-656.17" font-family="Times,serif" font-size="14.00">cmake&#45;cpp:&lt;distro&gt;_devel</text>
<text text-anchor="middle" x="831" y="-641.17" font-family="Times,serif" font-size="14.00">devel</text>
</g>
<!-- SRC&#45;&gt;DEVEL_IMG -->
<g id="edge12" class="edge">
<title>SRC&#45;&gt;DEVEL_IMG</title>
<path fill="none" stroke="black" stroke-dasharray="5,2" d="M1017.39,-737.62C1012.66,-734.79 1007.73,-731.98 1003,-729.5 970.77,-712.59 933.99,-695.97 902.75,-682.6"/>
<polygon fill="black" stroke="black" points="903.81,-679.25 893.24,-678.55 901.07,-685.69 903.81,-679.25"/>
<text text-anchor="middle" x="983" y="-700.3" font-family="Times,serif" font-size="14.00">copy</text>
</g>
<!-- SPL -->
<g id="node4" class="node">
<title>SPL</title>
<polygon fill="royalblue" stroke="black" points="510.5,-477.88 507.5,-481.88 486.5,-481.88 483.5,-477.88 435.5,-477.88 435.5,-441.88 510.5,-441.88 510.5,-477.88"/>
<text text-anchor="middle" x="473" y="-456.18" font-family="Times,serif" font-size="14.00">samples</text>
</g>
<!-- INSTALL_DEVEL_IMG -->
<g id="node10" class="node">
<title>INSTALL_DEVEL_IMG</title>
<path fill="royalblue" stroke="black" d="M774.5,-378.1C774.5,-380.74 716.46,-382.88 645,-382.88 573.54,-382.88 515.5,-380.74 515.5,-378.1 515.5,-378.1 515.5,-335.15 515.5,-335.15 515.5,-332.51 573.54,-330.37 645,-330.37 716.46,-330.37 774.5,-332.51 774.5,-335.15 774.5,-335.15 774.5,-378.1 774.5,-378.1"/>
<path fill="none" stroke="black" d="M774.5,-378.1C774.5,-375.47 716.46,-373.33 645,-373.33 573.54,-373.33 515.5,-375.47 515.5,-378.1"/>
<text text-anchor="middle" x="645" y="-360.43" font-family="Times,serif" font-size="14.00">cmake&#45;cpp:&lt;distro&gt;_install_devel</text>
<text text-anchor="middle" x="645" y="-345.43" font-family="Times,serif" font-size="14.00">install_devel</text>
</g>
<!-- SPL&#45;&gt;INSTALL_DEVEL_IMG -->
<g id="edge7" class="edge">
<title>SPL&#45;&gt;INSTALL_DEVEL_IMG</title>
<path fill="none" stroke="black" stroke-dasharray="5,2" d="M502.18,-441.7C527.13,-427.01 563.62,-405.53 593.48,-387.95"/>
<polygon fill="black" stroke="black" points="595.26,-390.96 602.11,-382.87 591.71,-384.93 595.26,-390.96"/>
<text text-anchor="middle" x="586" y="-404.55" font-family="Times,serif" font-size="14.00">copy</text>
</g>
<!-- ENV_IMG&#45;&gt;DEVEL_IMG -->
<g id="edge1" class="edge">
<title>ENV_IMG&#45;&gt;DEVEL_IMG</title>
<path fill="none" stroke="black" d="M696.71,-729.34C721.25,-715.45 751.86,-698.14 777.65,-683.55"/>
<polygon fill="black" stroke="black" points="779.57,-686.49 786.55,-678.52 776.13,-680.39 779.57,-686.49"/>
</g>
<!-- INSTALL_ENV_IMG -->
<g id="node9" class="node">
<title>INSTALL_ENV_IMG</title>
<path fill="royalblue" stroke="black" d="M775,-481.35C775,-483.99 719.87,-486.13 652,-486.13 584.13,-486.13 529,-483.99 529,-481.35 529,-481.35 529,-438.4 529,-438.4 529,-435.76 584.13,-433.62 652,-433.62 719.87,-433.62 775,-435.76 775,-438.4 775,-438.4 775,-481.35 775,-481.35"/>
<path fill="none" stroke="black" d="M775,-481.35C775,-478.72 719.87,-476.58 652,-476.58 584.13,-476.58 529,-478.72 529,-481.35"/>
<text text-anchor="middle" x="652" y="-463.68" font-family="Times,serif" font-size="14.00">cmake&#45;cpp:&lt;distro&gt;_install_env</text>
<text text-anchor="middle" x="652" y="-448.68" font-family="Times,serif" font-size="14.00">install_env</text>
</g>
<!-- ENV_IMG&#45;&gt;INSTALL_ENV_IMG -->
<g id="edge4" class="edge">
<title>ENV_IMG&#45;&gt;INSTALL_ENV_IMG</title>
<path fill="none" stroke="black" d="M652,-729.33C652,-676.94 652,-556.49 652,-496.37"/>
<polygon fill="black" stroke="black" points="655.5,-496.22 652,-486.22 648.5,-496.22 655.5,-496.22"/>
</g>
<!-- ENV_TAR -->
<g id="node13" class="node">
<title>ENV_TAR</title>
<polygon fill="royalblue" stroke="black" points="130,-52 16,-52 16,-16 136,-16 136,-46 130,-52"/>
<polyline fill="none" stroke="black" points="130,-52 130,-46 "/>
<polyline fill="none" stroke="black" points="136,-46 130,-46 "/>
<text text-anchor="middle" x="76" y="-30.3" font-family="Times,serif" font-size="14.00">docker_env.tar</text>
</g>
<!-- ENV_IMG&#45;&gt;ENV_TAR -->
<g id="edge13" class="edge">
<title>ENV_IMG&#45;&gt;ENV_TAR</title>
<path fill="none" stroke="red" d="M554.34,-747.13C391.45,-733.29 82,-700.77 82,-653.38 82,-653.38 82,-653.38 82,-149.12 82,-119.32 79.93,-85.2 78.23,-62.09"/>
<polygon fill="red" stroke="red" points="81.71,-61.7 77.45,-52 74.73,-62.24 81.71,-61.7"/>
<text text-anchor="middle" x="172.5" y="-404.55" font-family="Times,serif" font-size="14.00">make save_&lt;distro&gt;_env</text>
</g>
<!-- BUILD_IMG -->
<g id="node7" class="node">
<title>BUILD_IMG</title>
<path fill="royalblue" stroke="black" d="M991,-584.6C991,-587.24 944.83,-589.38 888,-589.38 831.17,-589.38 785,-587.24 785,-584.6 785,-584.6 785,-541.65 785,-541.65 785,-539.01 831.17,-536.87 888,-536.87 944.83,-536.87 991,-539.01 991,-541.65 991,-541.65 991,-584.6 991,-584.6"/>
<path fill="none" stroke="black" d="M991,-584.6C991,-581.97 944.83,-579.83 888,-579.83 831.17,-579.83 785,-581.97 785,-584.6"/>
<text text-anchor="middle" x="888" y="-566.92" font-family="Times,serif" font-size="14.00">cmake&#45;cpp:&lt;distro&gt;_build</text>
<text text-anchor="middle" x="888" y="-551.92" font-family="Times,serif" font-size="14.00">build</text>
</g>
<!-- DEVEL_IMG&#45;&gt;BUILD_IMG -->
<g id="edge2" class="edge">
<title>DEVEL_IMG&#45;&gt;BUILD_IMG</title>
<path fill="none" stroke="black" d="M847.49,-626.14C853.28,-617.28 859.88,-607.17 866.04,-597.73"/>
<polygon fill="black" stroke="black" points="869.01,-599.59 871.55,-589.3 863.15,-595.76 869.01,-599.59"/>
</g>
<!-- DEVEL_TAR -->
<g id="node14" class="node">
<title>DEVEL_TAR</title>
<polygon fill="royalblue" stroke="black" points="283.5,-52 154.5,-52 154.5,-16 289.5,-16 289.5,-46 283.5,-52"/>
<polyline fill="none" stroke="black" points="283.5,-52 283.5,-46 "/>
<polyline fill="none" stroke="black" points="289.5,-46 283.5,-46 "/>
<text text-anchor="middle" x="222" y="-30.3" font-family="Times,serif" font-size="14.00">docker_devel.tar</text>
</g>
<!-- DEVEL_IMG&#45;&gt;DEVEL_TAR -->
<g id="edge14" class="edge">
<title>DEVEL_IMG&#45;&gt;DEVEL_TAR</title>
<path fill="none" stroke="red" d="M726.75,-645.04C568.8,-634.02 287,-608.18 287,-564.12 287,-564.12 287,-564.12 287,-149.12 287,-114.96 264.73,-81.68 246.26,-59.97"/>
<polygon fill="red" stroke="red" points="248.66,-57.41 239.42,-52.23 243.42,-62.04 248.66,-57.41"/>
<text text-anchor="middle" x="383.5" y="-352.93" font-family="Times,serif" font-size="14.00">make save_&lt;distro&gt;_devel</text>
</g>
<!-- TEST_IMG -->
<g id="node8" class="node">
<title>TEST_IMG</title>
<path fill="royalblue" stroke="black" d="M990.5,-481.35C990.5,-483.99 946.35,-486.13 892,-486.13 837.65,-486.13 793.5,-483.99 793.5,-481.35 793.5,-481.35 793.5,-438.4 793.5,-438.4 793.5,-435.76 837.65,-433.62 892,-433.62 946.35,-433.62 990.5,-435.76 990.5,-438.4 990.5,-438.4 990.5,-481.35 990.5,-481.35"/>
<path fill="none" stroke="black" d="M990.5,-481.35C990.5,-478.72 946.35,-476.58 892,-476.58 837.65,-476.58 793.5,-478.72 793.5,-481.35"/>
<text text-anchor="middle" x="892" y="-463.68" font-family="Times,serif" font-size="14.00">cmake&#45;cpp:&lt;distro&gt;_test</text>
<text text-anchor="middle" x="892" y="-448.68" font-family="Times,serif" font-size="14.00">test</text>
</g>
<!-- BUILD_IMG&#45;&gt;TEST_IMG -->
<g id="edge3" class="edge">
<title>BUILD_IMG&#45;&gt;TEST_IMG</title>
<path fill="none" stroke="black" d="M889,-536.84C889.48,-524.63 890.07,-509.79 890.59,-496.47"/>
<polygon fill="black" stroke="black" points="894.1,-496.32 891,-486.19 887.11,-496.05 894.1,-496.32"/>
</g>
<!-- BUILD_IMG&#45;&gt;INSTALL_ENV_IMG -->
<g id="edge5" class="edge">
<title>BUILD_IMG&#45;&gt;INSTALL_ENV_IMG</title>
<path fill="none" stroke="black" stroke-dasharray="5,2" d="M829.36,-536.97C796.29,-522.78 754.82,-504.99 720.29,-490.17"/>
<polygon fill="black" stroke="black" points="721.32,-486.81 710.75,-486.08 718.56,-493.24 721.32,-486.81"/>
<text text-anchor="middle" x="825" y="-507.8" font-family="Times,serif" font-size="14.00">copy install</text>
</g>
<!-- BUILD_TAR -->
<g id="node15" class="node">
<title>BUILD_TAR</title>
<polygon fill="royalblue" stroke="black" points="1367.5,-52 1240.5,-52 1240.5,-16 1373.5,-16 1373.5,-46 1367.5,-52"/>
<polyline fill="none" stroke="black" points="1367.5,-52 1367.5,-46 "/>
<polyline fill="none" stroke="black" points="1373.5,-46 1367.5,-46 "/>
<text text-anchor="middle" x="1307" y="-30.3" font-family="Times,serif" font-size="14.00">docker_build.tar</text>
</g>
<!-- BUILD_IMG&#45;&gt;BUILD_TAR -->
<g id="edge15" class="edge">
<title>BUILD_IMG&#45;&gt;BUILD_TAR</title>
<path fill="none" stroke="red" d="M991.02,-561.02C1132.87,-556.66 1371,-537.88 1371,-460.88 1371,-460.88 1371,-460.88 1371,-149.12 1371,-115.08 1349.07,-81.79 1330.88,-60.03"/>
<polygon fill="red" stroke="red" points="1333.35,-57.54 1324.15,-52.28 1328.07,-62.13 1333.35,-57.54"/>
<text text-anchor="middle" x="1466.5" y="-301.3" font-family="Times,serif" font-size="14.00">make save_&lt;distro&gt;_build</text>
</g>
<!-- TEST_TAR -->
<g id="node16" class="node">
<title>TEST_TAR</title>
<polygon fill="royalblue" stroke="black" points="1216.5,-52 1097.5,-52 1097.5,-16 1222.5,-16 1222.5,-46 1216.5,-52"/>
<polyline fill="none" stroke="black" points="1216.5,-52 1216.5,-46 "/>
<polyline fill="none" stroke="black" points="1222.5,-46 1216.5,-46 "/>
<text text-anchor="middle" x="1160" y="-30.3" font-family="Times,serif" font-size="14.00">docker_test.tar</text>
</g>
<!-- TEST_IMG&#45;&gt;TEST_TAR -->
<g id="edge16" class="edge">
<title>TEST_IMG&#45;&gt;TEST_TAR</title>
<path fill="none" stroke="red" d="M990.65,-440.62C1067.07,-423.56 1160,-395.11 1160,-357.62 1160,-357.62 1160,-357.62 1160,-149.12 1160,-119.36 1160,-85.24 1160,-62.11"/>
<polygon fill="red" stroke="red" points="1163.5,-62.01 1160,-52.01 1156.5,-62.02 1163.5,-62.01"/>
<text text-anchor="middle" x="1251.5" y="-249.68" font-family="Times,serif" font-size="14.00">make save_&lt;distro&gt;_test</text>
</g>
<!-- INSTALL_ENV_IMG&#45;&gt;INSTALL_DEVEL_IMG -->
<g id="edge6" class="edge">
<title>INSTALL_ENV_IMG&#45;&gt;INSTALL_DEVEL_IMG</title>
<path fill="none" stroke="black" d="M650.25,-433.59C649.41,-421.38 648.38,-406.54 647.46,-393.22"/>
<polygon fill="black" stroke="black" points="650.93,-392.68 646.75,-382.94 643.95,-393.16 650.93,-392.68"/>
</g>
<!-- INSTALL_ENV_TAR -->
<g id="node17" class="node">
<title>INSTALL_ENV_TAR</title>
<polygon fill="royalblue" stroke="black" points="1073.5,-52 908.5,-52 908.5,-16 1079.5,-16 1079.5,-46 1073.5,-52"/>
<polyline fill="none" stroke="black" points="1073.5,-52 1073.5,-46 "/>
<polyline fill="none" stroke="black" points="1079.5,-46 1073.5,-46 "/>
<text text-anchor="middle" x="994" y="-30.3" font-family="Times,serif" font-size="14.00">docker_install_env.tar</text>
</g>
<!-- INSTALL_ENV_IMG&#45;&gt;INSTALL_ENV_TAR -->
<g id="edge17" class="edge">
<title>INSTALL_ENV_IMG&#45;&gt;INSTALL_ENV_TAR</title>
<path fill="none" stroke="red" d="M706.13,-433.68C731.29,-420.52 760.71,-402.94 784,-382.75 850.37,-325.2 842.79,-288.25 906,-227.25 933.7,-200.52 956.41,-209.38 976,-176.25 996.84,-141 998.25,-92.22 996.64,-62.19"/>
<polygon fill="red" stroke="red" points="1000.12,-61.77 995.95,-52.03 993.14,-62.25 1000.12,-61.77"/>
<text text-anchor="middle" x="1022" y="-249.68" font-family="Times,serif" font-size="14.00">make save_&lt;distro&gt;_install_env</text>
</g>
<!-- INSTALL_BUILD_IMG -->
<g id="node11" class="node">
<title>INSTALL_BUILD_IMG</title>
<path fill="royalblue" stroke="black" d="M779.5,-274.85C779.5,-277.49 721.9,-279.63 651,-279.63 580.1,-279.63 522.5,-277.49 522.5,-274.85 522.5,-274.85 522.5,-231.9 522.5,-231.9 522.5,-229.26 580.1,-227.12 651,-227.12 721.9,-227.12 779.5,-229.26 779.5,-231.9 779.5,-231.9 779.5,-274.85 779.5,-274.85"/>
<path fill="none" stroke="black" d="M779.5,-274.85C779.5,-272.22 721.9,-270.08 651,-270.08 580.1,-270.08 522.5,-272.22 522.5,-274.85"/>
<text text-anchor="middle" x="651" y="-257.18" font-family="Times,serif" font-size="14.00">cmake&#45;cpp:&lt;distro&gt;_install_build</text>
<text text-anchor="middle" x="651" y="-242.18" font-family="Times,serif" font-size="14.00">install_build</text>
</g>
<!-- INSTALL_DEVEL_IMG&#45;&gt;INSTALL_BUILD_IMG -->
<g id="edge8" class="edge">
<title>INSTALL_DEVEL_IMG&#45;&gt;INSTALL_BUILD_IMG</title>
<path fill="none" stroke="black" d="M646.5,-330.34C647.22,-318.13 648.1,-303.29 648.89,-289.97"/>
<polygon fill="black" stroke="black" points="652.4,-289.88 649.5,-279.69 645.41,-289.47 652.4,-289.88"/>
</g>
<!-- INSTALL_DEVEL_TAR -->
<g id="node18" class="node">
<title>INSTALL_DEVEL_TAR</title>
<polygon fill="royalblue" stroke="black" points="488,-52 308,-52 308,-16 494,-16 494,-46 488,-52"/>
<polyline fill="none" stroke="black" points="488,-52 488,-46 "/>
<polyline fill="none" stroke="black" points="494,-46 488,-46 "/>
<text text-anchor="middle" x="401" y="-30.3" font-family="Times,serif" font-size="14.00">docker_install_devel.tar</text>
</g>
<!-- INSTALL_DEVEL_IMG&#45;&gt;INSTALL_DEVEL_TAR -->
<g id="edge18" class="edge">
<title>INSTALL_DEVEL_IMG&#45;&gt;INSTALL_DEVEL_TAR</title>
<path fill="none" stroke="red" d="M561.44,-330.73C504.18,-308.8 432.56,-270.59 398,-209.25 371.91,-162.95 383.04,-98.14 392.59,-62.03"/>
<polygon fill="red" stroke="red" points="396.01,-62.8 395.34,-52.22 389.27,-60.91 396.01,-62.8"/>
<text text-anchor="middle" x="520" y="-198.05" font-family="Times,serif" font-size="14.00">make save_&lt;distro&gt;_install_devel</text>
</g>
<!-- INSTALL_TEST_IMG -->
<g id="node12" class="node">
<title>INSTALL_TEST_IMG</title>
<path fill="royalblue" stroke="black" d="M684,-171.6C684,-174.24 628.42,-176.38 560,-176.38 491.58,-176.38 436,-174.24 436,-171.6 436,-171.6 436,-128.65 436,-128.65 436,-126.01 491.58,-123.87 560,-123.87 628.42,-123.87 684,-126.01 684,-128.65 684,-128.65 684,-171.6 684,-171.6"/>
<path fill="none" stroke="black" d="M684,-171.6C684,-168.97 628.42,-166.83 560,-166.83 491.58,-166.83 436,-168.97 436,-171.6"/>
<text text-anchor="middle" x="560" y="-153.93" font-family="Times,serif" font-size="14.00">cmake&#45;cpp:&lt;distro&gt;_install_test</text>
<text text-anchor="middle" x="560" y="-138.93" font-family="Times,serif" font-size="14.00">install_test</text>
</g>
<!-- INSTALL_BUILD_IMG&#45;&gt;INSTALL_TEST_IMG -->
<g id="edge9" class="edge">
<title>INSTALL_BUILD_IMG&#45;&gt;INSTALL_TEST_IMG</title>
<path fill="none" stroke="black" d="M654.08,-227.09C654.15,-216.16 652.42,-203.72 646,-194.25 643.22,-190.15 639.92,-186.41 636.27,-183.02"/>
<polygon fill="black" stroke="black" points="638.29,-180.15 628.33,-176.53 633.86,-185.57 638.29,-180.15"/>
</g>
<!-- INSTALL_BUILD_TAR -->
<g id="node19" class="node">
<title>INSTALL_BUILD_TAR</title>
<polygon fill="royalblue" stroke="black" points="884,-52 706,-52 706,-16 890,-16 890,-46 884,-52"/>
<polyline fill="none" stroke="black" points="884,-52 884,-46 "/>
<polyline fill="none" stroke="black" points="890,-46 884,-46 "/>
<text text-anchor="middle" x="798" y="-30.3" font-family="Times,serif" font-size="14.00">docker_install_build.tar</text>
</g>
<!-- INSTALL_BUILD_IMG&#45;&gt;INSTALL_BUILD_TAR -->
<g id="edge19" class="edge">
<title>INSTALL_BUILD_IMG&#45;&gt;INSTALL_BUILD_TAR</title>
<path fill="none" stroke="red" d="M665.11,-227.16C680.96,-199.34 707.89,-153.54 734,-116 747.51,-96.58 764.1,-75.65 777.01,-59.93"/>
<polygon fill="red" stroke="red" points="779.7,-62.16 783.38,-52.23 774.31,-57.7 779.7,-62.16"/>
<text text-anchor="middle" x="855" y="-146.43" font-family="Times,serif" font-size="14.00">make save_&lt;distro&gt;_install_build</text>
</g>
<!-- INSTALL_TEST_TAR -->
<g id="node20" class="node">
<title>INSTALL_TEST_TAR</title>
<polygon fill="royalblue" stroke="black" points="682,-52 512,-52 512,-16 688,-16 688,-46 682,-52"/>
<polyline fill="none" stroke="black" points="682,-52 682,-46 "/>
<polyline fill="none" stroke="black" points="688,-46 682,-46 "/>
<text text-anchor="middle" x="600" y="-30.3" font-family="Times,serif" font-size="14.00">docker_install_test.tar</text>
</g>
<!-- INSTALL_TEST_IMG&#45;&gt;INSTALL_TEST_TAR -->
<g id="edge20" class="edge">
<title>INSTALL_TEST_IMG&#45;&gt;INSTALL_TEST_TAR</title>
<path fill="none" stroke="red" d="M484.25,-123.93C469.79,-115.08 461.91,-104.03 472,-91 480.71,-79.75 489.66,-87.96 503,-83 522.47,-75.76 543.2,-65.83 560.49,-56.87"/>
<polygon fill="red" stroke="red" points="562.49,-59.77 569.71,-52.02 559.23,-53.58 562.49,-59.77"/>
<text text-anchor="middle" x="589" y="-94.8" font-family="Times,serif" font-size="14.00">make save_&lt;distro&gt;_install_test</text>
</g>
</g>
</svg>
